<?xml version="1.0" encoding="UTF-8"?>
<!DOCTYPE svg PUBLIC "-//W3C//DTD SVG 1.1//EN" "http://www.w3.org/Graphics/SVG/1.1/DTD/svg11.dtd">
<svg xmlns="http://www.w3.org/2000/svg" version="1.1" width="150px" height="150px" style="shape-rendering:geometricPrecision; text-rendering:geometricPrecision; image-rendering:optimizeQuality; fill-rule:evenodd; clip-rule:evenodd" xmlns:xlink="http://www.w3.org/1999/xlink">
<g><path style="opacity:0.004" fill="#000000" d="M 86.5,-0.5 C 86.8333,-0.5 87.1667,-0.5 87.5,-0.5C 87.3147,0.170143 86.9813,0.170143 86.5,-0.5 Z"/></g>
<g><path style="opacity:0.004" fill="#000000" d="M 131.5,1.5 C 132.833,2.16667 132.833,2.16667 131.5,1.5 Z"/></g>
<g><path style="opacity:1" fill="#cc703f" d="M 77.5,17.5 C 76.3805,20.3871 75.3805,23.3871 74.5,26.5C 73.6195,23.3871 72.6195,20.3871 71.5,17.5C 73.594,15.0062 75.594,15.0062 77.5,17.5 Z"/></g>
<g><path style="opacity:1" fill="#0b0c0d" d="M 66.5,18.5 C 67.9187,17.5489 69.5853,17.2155 71.5,17.5C 72.6195,20.3871 73.6195,23.3871 74.5,26.5C 75.3805,23.3871 76.3805,20.3871 77.5,17.5C 79.4147,17.2155 81.0813,17.5489 82.5,18.5C 81.2264,19.1894 81.2264,20.0228 82.5,21C 97.0421,24.0678 108.042,31.9011 115.5,44.5C 114.448,44.6495 113.448,44.4828 112.5,44C 113.696,43.3457 113.696,42.8457 112.5,42.5C 111.893,42.6236 111.56,42.9569 111.5,43.5C 108.903,42.5972 108.403,43.2639 110,45.5C 110.383,44.944 110.883,44.6107 111.5,44.5C 111.179,46.0481 110.179,46.7148 108.5,46.5C 108.784,48.4147 108.451,50.0813 107.5,51.5C 106.74,49.0155 105.74,49.0155 104.5,51.5C 103.833,51.8333 103.167,52.1667 102.5,52.5C 102.789,48.8936 102.456,45.3936 101.5,42C 92.5,37.8333 83.5,33.6667 74.5,29.5C 66.6854,32.9077 59.0187,36.5744 51.5,40.5C 51.5198,38.857 50.8532,37.5237 49.5,36.5C 50.6888,35.5713 52.0222,35.238 53.5,35.5C 53.67,34.1779 53.3366,33.0113 52.5,32C 49.1536,31.4806 46.1536,32.814 43.5,36C 41.8455,36.6077 40.1789,37.1077 38.5,37.5C 45.7829,28.6857 55.1163,23.1857 66.5,21C 67.7736,20.0228 67.7736,19.1894 66.5,18.5 Z"/></g>
<g><path style="opacity:1" fill="#150e0a" d="M 73.5,17.5 C 75.3547,17.272 76.1881,17.9387 76,19.5C 73.3655,20.6922 72.5322,20.0256 73.5,17.5 Z"/></g>
<g><path style="opacity:1" fill="#dc4621" d="M 82.5,18.5 C 103.032,22.6991 116.698,34.6991 123.5,54.5C 123.5,55.8333 122.833,56.5 121.5,56.5C 120.438,51.9468 118.438,47.9468 115.5,44.5C 108.042,31.9011 97.0421,24.0678 82.5,21C 81.2264,20.0228 81.2264,19.1894 82.5,18.5 Z"/></g>
<g><path style="opacity:1" fill="#e74c22" d="M 66.5,18.5 C 67.7736,19.1894 67.7736,20.0228 66.5,21C 55.1163,23.1857 45.7829,28.6857 38.5,37.5C 37.5,38.1667 36.5,38.8333 35.5,39.5C 34.6618,39.1583 34.3284,38.4916 34.5,37.5C 42.6732,27.0759 53.3399,20.7425 66.5,18.5 Z"/></g>
<g><path style="opacity:1" fill="#c34e2b" d="M 55.5,31.5 C 57.4959,30.3122 58.3293,30.9789 58,33.5C 57.2917,32.6195 56.4584,31.9528 55.5,31.5 Z"/></g>
<g><path style="opacity:1" fill="#882f1b" d="M 61.5,28.5 C 63.332,29.1405 63.6653,30.1405 62.5,31.5C 61.6143,30.675 61.281,29.675 61.5,28.5 Z"/></g>
<g><path style="opacity:1" fill="#c05333" d="M 91.5,30.5 C 93.6569,31.0533 93.4903,32.0533 91,33.5C 90.5304,32.4232 90.6971,31.4232 91.5,30.5 Z"/></g>
<g><path style="opacity:1" fill="#0c171b" d="M 51.5,40.5 C 49.8297,40.7512 48.3297,41.4178 47,42.5C 46.3029,48.5368 46.4696,54.5368 47.5,60.5C 46.0598,61.9461 45.3932,63.7794 45.5,66C 45.6752,67.6581 46.3418,68.9914 47.5,70C 45.9829,73.6929 46.3162,77.1929 48.5,80.5C 47.675,81.3857 46.675,81.719 45.5,81.5C 45.719,80.325 45.3857,79.325 44.5,78.5C 43.4104,79.3914 43.4104,80.3914 44.5,81.5C 43.5,82.8333 42.5,82.8333 41.5,81.5C 40.4282,77.9574 38.9282,74.6241 37,71.5C 36.7679,72.7375 36.2679,73.7375 35.5,74.5C 35.5,74.1667 35.5,73.8333 35.5,73.5C 35.5858,72.5041 35.2524,71.6708 34.5,71C 36.8776,70.0255 36.5443,69.3589 33.5,69C 34.8491,68.2276 35.6824,67.0609 36,65.5C 36.6708,66.2524 37.5041,66.5858 38.5,66.5C 38.5,65.8333 38.5,65.1667 38.5,64.5C 40.5,64.5 42.5,64.5 44.5,64.5C 44.5958,60.3199 43.4291,56.6532 41,53.5C 40.0656,54.8584 39.2323,56.1917 38.5,57.5C 38.44,56.9569 38.1067,56.6236 37.5,56.5C 36.5481,58.0453 36.2148,59.712 36.5,61.5C 31.3222,62.508 29.8222,60.8413 32,56.5C 32.9138,57.6537 33.7471,57.487 34.5,56C 32.0667,53.8745 32.0667,51.7078 34.5,49.5C 35.9187,50.4511 37.5853,50.7845 39.5,50.5C 39.5,49.5 39.5,48.5 39.5,47.5C 37.8333,47.5 36.1667,47.5 34.5,47.5C 36.8439,47.0603 38.8439,46.0603 40.5,44.5C 41.4345,43.4324 41.7678,42.099 41.5,40.5C 42.2389,40.631 42.9056,40.4643 43.5,40C 43.0698,39.0805 42.7365,38.2472 42.5,37.5C 41.7025,37.9569 41.3691,38.6236 41.5,39.5C 40.1751,38.0474 39.3418,38.3808 39,40.5C 38.5172,39.552 38.3505,38.552 38.5,37.5C 40.1789,37.1077 41.8455,36.6077 43.5,36C 46.1536,32.814 49.1536,31.4806 52.5,32C 53.3366,33.0113 53.67,34.1779 53.5,35.5C 52.0222,35.238 50.6888,35.5713 49.5,36.5C 50.8532,37.5237 51.5198,38.857 51.5,40.5 Z"/></g>
<g><path style="opacity:1" fill="#427281" d="M 105.5,37.5 C 106.5,37.5 107.5,37.5 108.5,37.5C 108.5,38.5 108.5,39.5 108.5,40.5C 107.5,40.5 106.5,40.5 105.5,40.5C 105.5,39.5 105.5,38.5 105.5,37.5 Z"/></g>
<g><path style="opacity:1" fill="#5db0b7" d="M 41.5,40.5 C 41.5,40.1667 41.5,39.8333 41.5,39.5C 41.3691,38.6236 41.7025,37.9569 42.5,37.5C 42.7365,38.2472 43.0698,39.0805 43.5,40C 42.9056,40.4643 42.2389,40.631 41.5,40.5 Z"/></g>
<g><path style="opacity:1" fill="#f2eae4" d="M 102.5,52.5 C 102.632,55.5701 102.299,58.5701 101.5,61.5C 101.296,64.5176 100.963,67.5176 100.5,70.5C 99.8614,69.9032 99.528,69.0698 99.5,68C 101.162,59.8971 101.662,51.7305 101,43.5C 95.6671,40.7496 90.1671,38.4162 84.5,36.5C 81.4461,34.4691 78.1128,32.8024 74.5,31.5C 66.1667,35.3333 57.8333,39.1667 49.5,43C 48.5192,50.4129 48.1858,57.9129 48.5,65.5C 47.5489,64.0813 47.2155,62.4147 47.5,60.5C 46.4696,54.5368 46.3029,48.5368 47,42.5C 48.3297,41.4178 49.8297,40.7512 51.5,40.5C 59.0187,36.5744 66.6854,32.9077 74.5,29.5C 83.5,33.6667 92.5,37.8333 101.5,42C 102.456,45.3936 102.789,48.8936 102.5,52.5 Z"/></g>
<g><path style="opacity:1" fill="#8d2d22" d="M 111.5,43.5 C 111.5,43.8333 111.5,44.1667 111.5,44.5C 110.883,44.6107 110.383,44.944 110,45.5C 108.403,43.2639 108.903,42.5972 111.5,43.5 Z"/></g>
<g><path style="opacity:1" fill="#080a0c" d="M 83.5,39.5 C 88.3531,42.5854 93.6865,44.5854 99.5,45.5C 99.7451,54.2485 99.0784,62.9152 97.5,71.5C 95.9086,77.3494 93.242,82.6827 89.5,87.5C 89.3059,85.0882 87.9726,84.0882 85.5,84.5C 89.4192,80.32 91.4192,75.32 91.5,69.5C 90.1667,69.5 88.8333,69.5 87.5,69.5C 87.6646,72.5184 87.498,75.5184 87,78.5C 86.5026,75.854 86.3359,73.1873 86.5,70.5C 85.6522,69.375 84.6522,69.375 83.5,70.5C 82.791,69.596 81.791,69.2627 80.5,69.5C 80.5,73.5 80.5,77.5 80.5,81.5C 81.791,81.7373 82.791,81.404 83.5,80.5C 84.1667,80.5 84.8333,80.5 85.5,80.5C 84.3218,81.9986 82.6551,82.9986 80.5,83.5C 82.85,84.7739 82.6833,86.1073 80,87.5C 78.5993,85.8078 76.7659,85.1412 74.5,85.5C 74.5,85.1667 74.5,84.8333 74.5,84.5C 76.288,84.7852 77.9547,84.4519 79.5,83.5C 78.3112,82.5713 76.9778,82.238 75.5,82.5C 75.5,82.1667 75.5,81.8333 75.5,81.5C 76.8333,81.5 78.1667,81.5 79.5,81.5C 79.8432,79.5168 79.1765,78.1834 77.5,77.5C 76.8333,77.5 76.5,77.1667 76.5,76.5C 77.5,76.5 78.5,76.5 79.5,76.5C 79.5,74.1667 79.5,71.8333 79.5,69.5C 77.8333,69.5 76.1667,69.5 74.5,69.5C 74.5,69.1667 74.5,68.8333 74.5,68.5C 76.1667,68.5 77.8333,68.5 79.5,68.5C 79.5,67.1667 79.5,65.8333 79.5,64.5C 79.8333,64.5 80.1667,64.5 80.5,64.5C 80.5,65.8333 80.5,67.1667 80.5,68.5C 81.5,68.5 82.5,68.5 83.5,68.5C 83.5,67.1667 83.5,65.8333 83.5,64.5C 83.8333,64.5 84.1667,64.5 84.5,64.5C 85.1667,69.8333 85.8333,69.8333 86.5,64.5C 86.8333,64.5 87.1667,64.5 87.5,64.5C 87.5,65.8333 87.5,67.1667 87.5,68.5C 89.1667,68.5 90.8333,68.5 92.5,68.5C 92.5,67.1667 92.5,65.8333 92.5,64.5C 89.0381,63.5184 85.3714,63.185 81.5,63.5C 81.8016,60.9407 81.4682,58.6074 80.5,56.5C 80.5,54.5 79.5,53.5 77.5,53.5C 75.7354,52.5386 73.7354,52.2053 71.5,52.5C 72.0998,51.1001 73.0998,50.1001 74.5,49.5C 71.723,48.6827 69.0563,48.6827 66.5,49.5C 66.7093,48.914 67.0426,48.414 67.5,48C 69.8098,47.5034 72.1432,47.3367 74.5,47.5C 74.762,46.0222 74.4287,44.6888 73.5,43.5C 67.8632,46.488 62.1965,49.1547 56.5,51.5C 55.6908,53.0276 55.0241,54.6943 54.5,56.5C 53.8442,55.3784 53.5108,54.0451 53.5,52.5C 53.5854,50.6672 54.2521,49.3339 55.5,48.5C 57.8984,48.7406 59.8984,48.0739 61.5,46.5C 65.9336,45.1175 70.2669,43.4508 74.5,41.5C 80.6968,44.43 87.0301,47.0967 93.5,49.5C 94.5,49.1667 95.1667,48.5 95.5,47.5C 88.5996,43.8824 81.5996,40.5491 74.5,37.5C 67.415,41.2184 60.0817,44.0517 52.5,46C 59.9548,42.7728 67.2881,39.2728 74.5,35.5C 77.4037,37.12 80.4037,38.4533 83.5,39.5 Z"/></g>
<g><path style="opacity:1" fill="#153042" d="M 74.5,37.5 C 81.5996,40.5491 88.5996,43.8824 95.5,47.5C 95.1667,48.5 94.5,49.1667 93.5,49.5C 87.0301,47.0967 80.6968,44.43 74.5,41.5C 74.5,40.1667 74.5,38.8333 74.5,37.5 Z"/></g>
<g><path style="opacity:1" fill="#e94c1f" d="M 84.5,36.5 C 84.4431,37.609 84.1098,38.609 83.5,39.5C 80.4037,38.4533 77.4037,37.12 74.5,35.5C 67.2881,39.2728 59.9548,42.7728 52.5,46C 60.0817,44.0517 67.415,41.2184 74.5,37.5C 74.5,38.8333 74.5,40.1667 74.5,41.5C 70.2669,43.4508 65.9336,45.1175 61.5,46.5C 59.1016,46.2594 57.1016,46.9261 55.5,48.5C 54.2521,49.3339 53.5854,50.6672 53.5,52.5C 53.5108,54.0451 53.8442,55.3784 54.5,56.5C 54.6686,61.1811 55.0019,65.8478 55.5,70.5C 55.5654,70.9382 55.3988,71.2716 55,71.5C 54.6667,70.8333 54.3333,70.1667 54,69.5C 53.4554,63.0011 52.4554,56.6678 51,50.5C 49.977,51.6001 49.477,52.9334 49.5,54.5C 50.1684,58.8465 50.8351,63.1798 51.5,67.5C 50.2223,67.2178 49.2223,66.5511 48.5,65.5C 48.1858,57.9129 48.5192,50.4129 49.5,43C 57.8333,39.1667 66.1667,35.3333 74.5,31.5C 78.1128,32.8024 81.4461,34.4691 84.5,36.5 Z"/></g>
<g><path style="opacity:1" fill="#5b1c11" d="M 61.5,46.5 C 59.8984,48.0739 57.8984,48.7406 55.5,48.5C 57.1016,46.9261 59.1016,46.2594 61.5,46.5 Z"/></g>
<g><path style="opacity:1" fill="#bc2912" d="M 34.5,37.5 C 34.3284,38.4916 34.6618,39.1583 35.5,39.5C 32.0806,44.7307 29.414,50.3974 27.5,56.5C 26.3061,57.6704 25.6395,57.337 25.5,55.5C 26.9326,48.6346 29.9326,42.6346 34.5,37.5 Z"/></g>
<g><path style="opacity:1" fill="#62a7b7" d="M 34.5,47.5 C 36.1667,47.5 37.8333,47.5 39.5,47.5C 39.5,48.5 39.5,49.5 39.5,50.5C 37.5853,50.7845 35.9187,50.4511 34.5,49.5C 34.5,48.8333 34.5,48.1667 34.5,47.5 Z"/></g>
<g><path style="opacity:1" fill="#1b3c50" d="M 74.5,49.5 C 73.1266,49.3433 71.7932,49.51 70.5,50C 68.478,52.0094 66.1446,53.5094 63.5,54.5C 62.7784,54.0825 62.2784,53.4158 62,52.5C 58.7002,54.557 58.8669,55.557 62.5,55.5C 61.1938,56.4674 60.5271,57.8007 60.5,59.5C 59.1667,59.5 57.8333,59.5 56.5,59.5C 56.5,56.8333 56.5,54.1667 56.5,51.5C 62.1965,49.1547 67.8632,46.488 73.5,43.5C 74.4287,44.6888 74.762,46.0222 74.5,47.5C 72.1432,47.3367 69.8098,47.5034 67.5,48C 67.0426,48.414 66.7093,48.914 66.5,49.5C 69.0563,48.6827 71.723,48.6827 74.5,49.5 Z"/></g>
<g><path style="opacity:1" fill="#233a4b" d="M 84.5,36.5 C 90.1671,38.4162 95.6671,40.7496 101,43.5C 101.662,51.7305 101.162,59.8971 99.5,68C 99.528,69.0698 99.8614,69.9032 100.5,70.5C 99.8313,73.7155 98.8313,74.0489 97.5,71.5C 99.0784,62.9152 99.7451,54.2485 99.5,45.5C 93.6865,44.5854 88.3531,42.5854 83.5,39.5C 84.1098,38.609 84.4431,37.609 84.5,36.5 Z"/></g>
<g><path style="opacity:1" fill="#70b3c3" d="M 114.5,47.5 C 114.5,48.5 114.5,49.5 114.5,50.5C 112.833,50.5 111.167,50.5 109.5,50.5C 109.5,49.5 109.5,48.5 109.5,47.5C 111.167,47.5 112.833,47.5 114.5,47.5 Z"/></g>
<g><path style="opacity:1" fill="#2b6c8e" d="M 107.5,51.5 C 106.652,52.625 105.652,52.625 104.5,51.5C 105.74,49.0155 106.74,49.0155 107.5,51.5 Z"/></g>
<g><path style="opacity:1" fill="#246b8b" d="M 42.5,49.5 C 44.8519,50.5426 45.0185,51.8759 43,53.5C 41.2317,52.3181 41.0651,50.9848 42.5,49.5 Z"/></g>
<g><path style="opacity:1" fill="#688798" d="M 83.5,49.5 C 84.2674,50.172 84.9341,51.0053 85.5,52C 83.9387,52.1881 83.272,51.3547 83.5,49.5 Z"/></g>
<g><path style="opacity:1" fill="#0f1c24" d="M 115.5,44.5 C 115.443,45.609 115.11,46.609 114.5,47.5C 112.833,47.5 111.167,47.5 109.5,47.5C 109.5,48.5 109.5,49.5 109.5,50.5C 111.167,50.5 112.833,50.5 114.5,50.5C 116.064,51.4723 117.064,53.4723 117.5,56.5C 115.705,56.0341 113.705,56.0341 111.5,56.5C 110.722,58.3835 110.389,60.0502 110.5,61.5C 108.5,61.5 106.5,61.5 104.5,61.5C 104.5,62.5 104.5,63.5 104.5,64.5C 106.5,64.5 108.5,64.5 110.5,64.5C 110.5,66.1667 110.5,67.8333 110.5,69.5C 108.167,69.5 105.833,69.5 103.5,69.5C 103.706,66.5049 103.04,63.8383 101.5,61.5C 102.299,58.5701 102.632,55.5701 102.5,52.5C 103.167,52.1667 103.833,51.8333 104.5,51.5C 105.652,52.625 106.652,52.625 107.5,51.5C 108.451,50.0813 108.784,48.4147 108.5,46.5C 110.179,46.7148 111.179,46.0481 111.5,44.5C 111.5,44.1667 111.5,43.8333 111.5,43.5C 111.56,42.9569 111.893,42.6236 112.5,42.5C 113.696,42.8457 113.696,43.3457 112.5,44C 113.448,44.4828 114.448,44.6495 115.5,44.5 Z"/></g>
<g><path style="opacity:1" fill="#e6d4ca" d="M 71.5,52.5 C 73.7354,52.2053 75.7354,52.5386 77.5,53.5C 74.9899,53.0535 72.9899,53.7202 71.5,55.5C 70.8333,55.5 70.1667,55.5 69.5,55.5C 70.1667,54.5 70.8333,53.5 71.5,52.5 Z"/></g>
<g><path style="opacity:1" fill="#a79f9b" d="M 77.5,53.5 C 79.5,53.5 80.5,54.5 80.5,56.5C 79.1667,55.8333 78.1667,54.8333 77.5,53.5 Z"/></g>
<g><path style="opacity:1" fill="#d14527" d="M 77.5,53.5 C 78.1667,54.8333 79.1667,55.8333 80.5,56.5C 81.4682,58.6074 81.8016,60.9407 81.5,63.5C 80.5,63.5 79.5,63.5 78.5,63.5C 78.6747,61.3792 78.3414,59.3792 77.5,57.5C 76.0821,55.6921 74.0821,55.0254 71.5,55.5C 72.9899,53.7202 74.9899,53.0535 77.5,53.5 Z"/></g>
<g><path style="opacity:1" fill="#5b150f" d="M 123.5,54.5 C 124.434,55.5676 124.768,56.901 124.5,58.5C 122.821,58.7148 121.821,58.0481 121.5,56.5C 122.833,56.5 123.5,55.8333 123.5,54.5 Z"/></g>
<g><path style="opacity:1" fill="#112f3e" d="M 38.5,64.5 C 38.5,63.5 38.5,62.5 38.5,61.5C 43.8333,61.1667 43.8333,60.8333 38.5,60.5C 38.5,59.5 38.5,58.5 38.5,57.5C 39.2323,56.1917 40.0656,54.8584 41,53.5C 43.4291,56.6532 44.5958,60.3199 44.5,64.5C 42.5,64.5 40.5,64.5 38.5,64.5 Z"/></g>
<g><path style="opacity:1" fill="#77120b" d="M 71.5,55.5 C 74.0821,55.0254 76.0821,55.6921 77.5,57.5C 72.0744,55.5907 70.0744,57.5907 71.5,63.5C 71.1667,63.5 70.8333,63.5 70.5,63.5C 70.2786,60.7212 70.612,58.0545 71.5,55.5 Z"/></g>
<g><path style="opacity:1" fill="#060708" d="M 77.5,57.5 C 78.3414,59.3792 78.6747,61.3792 78.5,63.5C 76.1667,63.5 73.8333,63.5 71.5,63.5C 70.0744,57.5907 72.0744,55.5907 77.5,57.5 Z"/></g>
<g><path style="opacity:1" fill="#6fa1bc" d="M 86.5,58.5 C 88.337,58.6395 88.6704,59.3061 87.5,60.5C 86.7025,60.0431 86.3691,59.3764 86.5,58.5 Z"/></g>
<g><path style="opacity:1" fill="#ce2e12" d="M 69.5,55.5 C 70.1667,55.5 70.8333,55.5 71.5,55.5C 70.612,58.0545 70.2786,60.7212 70.5,63.5C 69.3065,63.0296 68.6399,62.0296 68.5,60.5C 68.7284,58.7927 69.0617,57.126 69.5,55.5 Z"/></g>
<g><path style="opacity:1" fill="#efe5e1" d="M 69.5,55.5 C 69.0617,57.126 68.7284,58.7927 68.5,60.5C 68.6399,62.0296 69.3065,63.0296 70.5,63.5C 70.8333,63.5 71.1667,63.5 71.5,63.5C 73.8333,63.5 76.1667,63.5 78.5,63.5C 79.5,63.5 80.5,63.5 81.5,63.5C 85.3714,63.185 89.0381,63.5184 92.5,64.5C 90.8333,64.5 89.1667,64.5 87.5,64.5C 87.1667,64.5 86.8333,64.5 86.5,64.5C 85.8333,64.5 85.1667,64.5 84.5,64.5C 84.1667,64.5 83.8333,64.5 83.5,64.5C 82.5,64.5 81.5,64.5 80.5,64.5C 80.1667,64.5 79.8333,64.5 79.5,64.5C 77.8333,64.5 76.1667,64.5 74.5,64.5C 68.8236,64.6661 63.1569,64.4994 57.5,64C 60.8168,63.5017 64.1501,63.335 67.5,63.5C 67.3367,61.1432 67.5034,58.8098 68,56.5C 68.3826,55.944 68.8826,55.6107 69.5,55.5 Z"/></g>
<g><path style="opacity:1" fill="#ca4526" d="M 74.5,64.5 C 76.1667,64.5 77.8333,64.5 79.5,64.5C 79.5,65.8333 79.5,67.1667 79.5,68.5C 77.8333,68.5 76.1667,68.5 74.5,68.5C 74.5,67.1667 74.5,65.8333 74.5,64.5 Z"/></g>
<g><path style="opacity:1" fill="#b74125" d="M 84.5,64.5 C 85.1667,64.5 85.8333,64.5 86.5,64.5C 85.8333,69.8333 85.1667,69.8333 84.5,64.5 Z"/></g>
<g><path style="opacity:1" fill="#e94b1e" d="M 80.5,64.5 C 81.5,64.5 82.5,64.5 83.5,64.5C 83.5,65.8333 83.5,67.1667 83.5,68.5C 82.5,68.5 81.5,68.5 80.5,68.5C 80.5,67.1667 80.5,65.8333 80.5,64.5 Z"/></g>
<g><path style="opacity:1" fill="#d5431c" d="M 87.5,64.5 C 89.1667,64.5 90.8333,64.5 92.5,64.5C 92.5,65.8333 92.5,67.1667 92.5,68.5C 90.8333,68.5 89.1667,68.5 87.5,68.5C 87.5,67.1667 87.5,65.8333 87.5,64.5 Z"/></g>
<g><path style="opacity:0.994" fill="#0b0e0f" d="M 38.5,37.5 C 38.3505,38.552 38.5172,39.552 39,40.5C 39.3418,38.3808 40.1751,38.0474 41.5,39.5C 41.5,39.8333 41.5,40.1667 41.5,40.5C 41.7678,42.099 41.4345,43.4324 40.5,44.5C 38.8439,46.0603 36.8439,47.0603 34.5,47.5C 34.5,48.1667 34.5,48.8333 34.5,49.5C 32.0667,51.7078 32.0667,53.8745 34.5,56C 33.7471,57.487 32.9138,57.6537 32,56.5C 29.8222,60.8413 31.3222,62.508 36.5,61.5C 36.2148,59.712 36.5481,58.0453 37.5,56.5C 38.1067,56.6236 38.44,56.9569 38.5,57.5C 38.5,58.5 38.5,59.5 38.5,60.5C 43.8333,60.8333 43.8333,61.1667 38.5,61.5C 38.5,62.5 38.5,63.5 38.5,64.5C 38.5,65.1667 38.5,65.8333 38.5,66.5C 37.5041,66.5858 36.6708,66.2524 36,65.5C 35.6824,67.0609 34.8491,68.2276 33.5,69C 36.5443,69.3589 36.8776,70.0255 34.5,71C 35.2524,71.6708 35.5858,72.5041 35.5,73.5C 34.6236,73.3691 33.9569,73.7025 33.5,74.5C 34.2565,75.7733 34.9232,75.7733 35.5,74.5C 36.2679,73.7375 36.7679,72.7375 37,71.5C 38.9282,74.6241 40.4282,77.9574 41.5,81.5C 42.5,82.8333 43.5,82.8333 44.5,81.5C 43.4104,80.3914 43.4104,79.3914 44.5,78.5C 45.3857,79.325 45.719,80.325 45.5,81.5C 46.675,81.719 47.675,81.3857 48.5,80.5C 46.3162,77.1929 45.9829,73.6929 47.5,70C 46.3418,68.9914 45.6752,67.6581 45.5,66C 45.3932,63.7794 46.0598,61.9461 47.5,60.5C 47.2155,62.4147 47.5489,64.0813 48.5,65.5C 50.1527,76.1354 54.486,85.4688 61.5,93.5C 59.5742,92.7577 57.7409,91.7577 56,90.5C 55.6012,90.7284 55.4346,91.0618 55.5,91.5C 53.5,91.5 51.5,91.5 49.5,91.5C 50.4831,90.1497 51.8164,89.1497 53.5,88.5C 52.5515,86.0562 51.0515,84.0562 49,82.5C 47.902,83.3839 47.402,84.3839 47.5,85.5C 46.1456,83.8164 44.4789,83.3164 42.5,84C 45.0436,85.4811 46.7103,87.6478 47.5,90.5C 47.1543,91.6956 46.6543,91.6956 46,90.5C 45.5172,89.552 45.3505,88.552 45.5,87.5C 43.5853,87.2155 41.9187,87.5489 40.5,88.5C 39.1667,90.1667 39.1667,91.8333 40.5,93.5C 40.9175,94.2216 41.5842,94.7216 42.5,95C 41.2625,95.2321 40.2625,95.7321 39.5,96.5C 39.6865,101.845 40.0199,107.178 40.5,112.5C 42.5,112.5 44.5,112.5 46.5,112.5C 47.5018,96.5091 48.5018,96.5091 49.5,112.5C 51.5,112.5 53.5,112.5 55.5,112.5C 56.2071,109.214 56.5405,105.881 56.5,102.5C 57.1174,102.389 57.6174,102.056 58,101.5C 58.2784,102.416 58.7784,103.082 59.5,103.5C 59.5,108.5 59.5,113.5 59.5,118.5C 58.0609,117.491 56.7276,117.824 55.5,119.5C 54.8076,118.975 54.3076,118.308 54,117.5C 52.5421,118.747 51.0421,118.747 49.5,117.5C 48.8182,118.243 48.1515,118.909 47.5,119.5C 43.1633,117.599 38.4966,116.432 33.5,116C 30.1392,115.663 26.8058,115.163 23.5,114.5C 22.8333,114.833 22.1667,115.167 21.5,115.5C 23.7427,116.474 26.076,116.808 28.5,116.5C 27.0867,117.935 25.42,118.935 23.5,119.5C 24.8333,120.167 26.1667,120.833 27.5,121.5C 25.1542,122.523 22.8209,123.523 20.5,124.5C 19.5416,124.047 18.7083,123.381 18,122.5C 17.3333,109.833 17.3333,97.1667 18,84.5C 19.2635,82.393 21.0968,81.393 23.5,81.5C 23.6495,80.448 23.4828,79.448 23,78.5C 19.933,75.9365 17.433,72.9365 15.5,69.5C 17.7392,65.7529 20.5726,62.4196 24,59.5C 24.21,57.9419 24.71,56.6085 25.5,55.5C 25.6395,57.337 26.3061,57.6704 27.5,56.5C 29.414,50.3974 32.0806,44.7307 35.5,39.5C 36.5,38.8333 37.5,38.1667 38.5,37.5 Z M 49.5,91.5 C 51.5,91.5 53.5,91.5 55.5,91.5C 54.3588,92.339 53.0255,93.0057 51.5,93.5C 50.4777,93.1445 49.811,92.4778 49.5,91.5 Z"/></g>
<g><path style="opacity:1" fill="#c22b11" d="M 22.5,63.5 C 24.7288,64.0553 26.3954,65.3886 27.5,67.5C 28.6888,68.4287 30.0222,68.762 31.5,68.5C 31.5,69.5 31.5,70.5 31.5,71.5C 28.1422,72.0945 25.1422,73.2611 22.5,75C 20.6487,73.3163 18.982,71.4829 17.5,69.5C 19.1897,67.4807 20.8564,65.4807 22.5,63.5 Z"/></g>
<g><path style="opacity:1" fill="#11435c" d="M 38.5,66.5 C 40.1667,66.5 41.8333,66.5 43.5,66.5C 43.5,67.5 43.5,68.5 43.5,69.5C 41.8333,69.5 40.1667,69.5 38.5,69.5C 38.5,68.5 38.5,67.5 38.5,66.5 Z"/></g>
<g><path style="opacity:1" fill="#0f0505" d="M 22.5,66.5 C 23.9953,66.4148 24.9953,67.0815 25.5,68.5C 24.1667,73.8333 22.8333,73.8333 21.5,68.5C 21.8627,67.8165 22.1961,67.1499 22.5,66.5 Z"/></g>
<g><path style="opacity:1" fill="#a12f1b" d="M 32.5,65.5 C 34.337,65.6395 34.6704,66.3061 33.5,67.5C 32.7025,67.0431 32.3691,66.3764 32.5,65.5 Z"/></g>
<g><path style="opacity:1" fill="#7d2817" d="M 40.5,44.5 C 39.3523,45.895 38.3523,45.7284 37.5,44C 39.0527,41.8601 40.0527,42.0268 40.5,44.5 Z"/></g>
<g><path style="opacity:1" fill="#7a130e" d="M 55.5,70.5 C 57.0369,76.0858 59.3702,81.4191 62.5,86.5C 62.1543,87.6956 61.6543,87.6956 61,86.5C 60.5357,87.0944 60.369,87.7611 60.5,88.5C 55.772,82.3394 52.772,75.3394 51.5,67.5C 50.8351,63.1798 50.1684,58.8465 49.5,54.5C 49.477,52.9334 49.977,51.6001 51,50.5C 52.4554,56.6678 53.4554,63.0011 54,69.5C 54.3333,70.1667 54.6667,70.8333 55,71.5C 55.3988,71.2716 55.5654,70.9382 55.5,70.5 Z"/></g>
<g><path style="opacity:1" fill="#0d191f" d="M 100.5,70.5 C 103.324,70.892 106.324,70.892 109.5,70.5C 109.5,71.5 109.5,72.5 109.5,73.5C 98.8333,73.8333 98.8333,74.1667 109.5,74.5C 109.244,76.9372 108.577,79.2706 107.5,81.5C 105.269,81.8867 102.936,82.0534 100.5,82C 101.047,82.9246 101.713,83.7579 102.5,84.5C 103.768,83.5721 105.101,83.4054 106.5,84C 105.62,85.3561 105.286,86.8561 105.5,88.5C 105.5,89.1667 105.167,89.5 104.5,89.5C 103.58,88.9326 103.246,89.5992 103.5,91.5C 102.167,91.5 100.833,91.5 99.5,91.5C 99.2606,89.5328 99.5939,87.6995 100.5,86C 100.167,85.8333 99.8333,85.6667 99.5,85.5C 98.5713,86.6888 98.238,88.0222 98.5,89.5C 95.7952,89.6198 95.1285,88.6198 96.5,86.5C 95.635,85.4173 94.635,85.2506 93.5,86C 91.6034,89.5867 88.9368,91.92 85.5,93C 87.4641,91.549 88.7974,89.7157 89.5,87.5C 93.242,82.6827 95.9086,77.3494 97.5,71.5C 98.8313,74.0489 99.8313,73.7155 100.5,70.5 Z"/></g>
<g><path style="opacity:1" fill="#0f1215" d="M 74.5,49.5 C 73.0998,50.1001 72.0998,51.1001 71.5,52.5C 70.8333,53.5 70.1667,54.5 69.5,55.5C 68.8826,55.6107 68.3826,55.944 68,56.5C 67.5034,58.8098 67.3367,61.1432 67.5,63.5C 64.1501,63.335 60.8168,63.5017 57.5,64C 63.1569,64.4994 68.8236,64.6661 74.5,64.5C 74.5,65.8333 74.5,67.1667 74.5,68.5C 74.5,68.8333 74.5,69.1667 74.5,69.5C 73.1667,69.5 71.8333,69.5 70.5,69.5C 70.1924,71.924 70.5258,74.2573 71.5,76.5C 72.4656,74.604 72.7989,72.604 72.5,70.5C 77.3313,70.1621 78.6646,72.1621 76.5,76.5C 76.5,77.1667 76.8333,77.5 77.5,77.5C 76.9935,78.8589 75.9935,79.8589 74.5,80.5C 74.6236,81.1067 74.9569,81.44 75.5,81.5C 75.5,81.8333 75.5,82.1667 75.5,82.5C 74.6618,82.8417 74.3284,83.5084 74.5,84.5C 74.5,84.8333 74.5,85.1667 74.5,85.5C 73.9898,88.3878 74.6565,90.7211 76.5,92.5C 75.7703,94.045 74.437,94.8784 72.5,95C 75.0356,95.1862 77.369,95.6862 79.5,96.5C 76.6146,96.1936 73.9479,96.5269 71.5,97.5C 71.1667,97.5 70.8333,97.5 70.5,97.5C 69.791,96.596 68.791,96.2627 67.5,96.5C 67.9177,103.861 66.9177,104.194 64.5,97.5C 62.9547,96.5481 61.288,96.2148 59.5,96.5C 59.5,98.8333 59.5,101.167 59.5,103.5C 58.7784,103.082 58.2784,102.416 58,101.5C 57.6174,102.056 57.1174,102.389 56.5,102.5C 57.1495,100.565 57.4828,98.5648 57.5,96.5C 56.5,96.5 55.5,96.5 54.5,96.5C 53.6233,109.633 52.29,109.633 50.5,96.5C 48.8333,96.5 47.1667,96.5 45.5,96.5C 44.4946,112.478 43.4946,112.478 42.5,96.5C 41.5,96.5 40.5,96.5 39.5,96.5C 40.2625,95.7321 41.2625,95.2321 42.5,95C 41.5842,94.7216 40.9175,94.2216 40.5,93.5C 43.9103,93.6162 45.2436,91.9496 44.5,88.5C 43.1667,88.5 41.8333,88.5 40.5,88.5C 41.9187,87.5489 43.5853,87.2155 45.5,87.5C 45.3505,88.552 45.5172,89.552 46,90.5C 46.6543,91.6956 47.1543,91.6956 47.5,90.5C 46.7103,87.6478 45.0436,85.4811 42.5,84C 44.4789,83.3164 46.1456,83.8164 47.5,85.5C 47.402,84.3839 47.902,83.3839 49,82.5C 51.0515,84.0562 52.5515,86.0562 53.5,88.5C 51.8164,89.1497 50.4831,90.1497 49.5,91.5C 49.811,92.4778 50.4777,93.1445 51.5,93.5C 53.0255,93.0057 54.3588,92.339 55.5,91.5C 55.4346,91.0618 55.6012,90.7284 56,90.5C 57.7409,91.7577 59.5742,92.7577 61.5,93.5C 62.3764,93.6309 63.0431,93.2975 63.5,92.5C 62.4756,91.1482 61.4756,89.8149 60.5,88.5C 60.369,87.7611 60.5357,87.0944 61,86.5C 61.6543,87.6956 62.1543,87.6956 62.5,86.5C 59.3702,81.4191 57.0369,76.0858 55.5,70.5C 55.0019,65.8478 54.6686,61.1811 54.5,56.5C 55.0241,54.6943 55.6908,53.0276 56.5,51.5C 56.5,54.1667 56.5,56.8333 56.5,59.5C 57.8333,59.5 59.1667,59.5 60.5,59.5C 60.5271,57.8007 61.1938,56.4674 62.5,55.5C 63.1667,55.5 63.5,55.1667 63.5,54.5C 66.1446,53.5094 68.478,52.0094 70.5,50C 71.7932,49.51 73.1266,49.3433 74.5,49.5 Z M 49.5,91.5 C 51.5,91.5 53.5,91.5 55.5,91.5C 54.3588,92.339 53.0255,93.0057 51.5,93.5C 50.4777,93.1445 49.811,92.4778 49.5,91.5 Z"/></g>
<g><path style="opacity:1" fill="#d5e8ed" d="M 63.5,54.5 C 63.5,55.1667 63.1667,55.5 62.5,55.5C 58.8669,55.557 58.7002,54.557 62,52.5C 62.2784,53.4158 62.7784,54.0825 63.5,54.5 Z"/></g>
<g><path style="opacity:1" fill="#a0321c" d="M 35.5,73.5 C 35.5,73.8333 35.5,74.1667 35.5,74.5C 34.9232,75.7733 34.2565,75.7733 33.5,74.5C 33.9569,73.7025 34.6236,73.3691 35.5,73.5 Z"/></g>
<g><path style="opacity:1" fill="#bc381f" d="M 74.5,69.5 C 76.1667,69.5 77.8333,69.5 79.5,69.5C 79.5,71.8333 79.5,74.1667 79.5,76.5C 78.5,76.5 77.5,76.5 76.5,76.5C 78.6646,72.1621 77.3313,70.1621 72.5,70.5C 72.7989,72.604 72.4656,74.604 71.5,76.5C 70.5258,74.2573 70.1924,71.924 70.5,69.5C 71.8333,69.5 73.1667,69.5 74.5,69.5 Z"/></g>
<g><path style="opacity:1" fill="#480c0c" d="M 86.5,70.5 C 85.5206,73.6248 85.1872,76.9581 85.5,80.5C 84.8333,80.5 84.1667,80.5 83.5,80.5C 83.5,77.1667 83.5,73.8333 83.5,70.5C 84.6522,69.375 85.6522,69.375 86.5,70.5 Z"/></g>
<g><path style="opacity:1" fill="#b61f0a" d="M 83.5,70.5 C 83.5,73.8333 83.5,77.1667 83.5,80.5C 82.791,81.404 81.791,81.7373 80.5,81.5C 80.5,77.5 80.5,73.5 80.5,69.5C 81.791,69.2627 82.791,69.596 83.5,70.5 Z"/></g>
<g><path style="opacity:1" fill="#b82716" d="M 34.5,78.5 C 35.675,78.281 36.675,78.6143 37.5,79.5C 35.5787,80.641 33.5787,80.8077 31.5,80C 32.7375,79.7679 33.7375,79.2679 34.5,78.5 Z"/></g>
<g><path style="opacity:1" fill="#942c1d" d="M 77.5,77.5 C 79.1765,78.1834 79.8432,79.5168 79.5,81.5C 78.1667,81.5 76.8333,81.5 75.5,81.5C 74.9569,81.44 74.6236,81.1067 74.5,80.5C 75.9935,79.8589 76.9935,78.8589 77.5,77.5 Z"/></g>
<g><path style="opacity:0.938" fill="#090e0f" d="M 115.5,44.5 C 118.438,47.9468 120.438,51.9468 121.5,56.5C 121.821,58.0481 122.821,58.7148 124.5,58.5C 127.857,61.8585 130.857,65.5251 133.5,69.5C 131.213,73.1219 128.547,76.4552 125.5,79.5C 128.017,81.5085 130.184,83.8418 132,86.5C 132.667,97.8333 132.667,109.167 132,120.5C 131.34,122.324 130.173,123.657 128.5,124.5C 127.355,122.288 126.355,119.955 125.5,117.5C 123.703,118.932 122.37,118.599 121.5,116.5C 123.604,116.799 125.604,116.466 127.5,115.5C 126.311,114.571 124.978,114.238 123.5,114.5C 121.143,114.663 118.81,114.497 116.5,114C 115.944,113.617 115.611,113.117 115.5,112.5C 119.437,112.793 123.27,112.46 127,111.5C 127.499,107.179 127.666,102.846 127.5,98.5C 123.452,98.3946 119.452,98.7279 115.5,99.5C 115.5,96.5 115.5,93.5 115.5,90.5C 118.5,90.5 121.5,90.5 124.5,90.5C 124.127,96.7839 125.127,97.1172 127.5,91.5C 127.43,90.2284 127.097,89.0617 126.5,88C 113.506,84.6598 109.173,89.3264 113.5,102C 117.17,102.279 120.837,102.112 124.5,101.5C 124.5,104.167 124.5,106.833 124.5,109.5C 121.5,109.5 118.5,109.5 115.5,109.5C 115.5,108.5 115.5,107.5 115.5,106.5C 114.5,106.5 113.5,106.5 112.5,106.5C 112.5,107.833 112.5,109.167 112.5,110.5C 109.997,108.396 107.33,108.063 104.5,109.5C 103.539,107.735 103.205,105.735 103.5,103.5C 111.5,102.833 111.5,102.167 103.5,101.5C 103.5,100.5 103.5,99.5 103.5,98.5C 105.924,98.8076 108.257,98.4742 110.5,97.5C 107.572,96.5159 104.572,96.1826 101.5,96.5C 101.167,96.5 100.833,96.5 100.5,96.5C 103.962,95.5184 107.629,95.185 111.5,95.5C 111.795,93.2646 111.461,91.2646 110.5,89.5C 108.958,88.6993 107.292,88.366 105.5,88.5C 105.286,86.8561 105.62,85.3561 106.5,84C 105.101,83.4054 103.768,83.5721 102.5,84.5C 101.713,83.7579 101.047,82.9246 100.5,82C 102.936,82.0534 105.269,81.8867 107.5,81.5C 108.577,79.2706 109.244,76.9372 109.5,74.5C 98.8333,74.1667 98.8333,73.8333 109.5,73.5C 109.5,72.5 109.5,71.5 109.5,70.5C 106.324,70.892 103.324,70.892 100.5,70.5C 100.963,67.5176 101.296,64.5176 101.5,61.5C 103.04,63.8383 103.706,66.5049 103.5,69.5C 105.833,69.5 108.167,69.5 110.5,69.5C 110.5,67.8333 110.5,66.1667 110.5,64.5C 110.5,63.5 110.5,62.5 110.5,61.5C 110.389,60.0502 110.722,58.3835 111.5,56.5C 113.705,56.0341 115.705,56.0341 117.5,56.5C 117.064,53.4723 116.064,51.4723 114.5,50.5C 114.5,49.5 114.5,48.5 114.5,47.5C 115.11,46.609 115.443,45.609 115.5,44.5 Z"/></g>
<g><path style="opacity:1" fill="#c93519" d="M 112.5,78.5 C 114.179,78.8923 115.846,79.3923 117.5,80C 116.667,80.1667 115.833,80.3333 115,80.5C 113.624,80.3158 112.791,79.6491 112.5,78.5 Z"/></g>
<g><path style="opacity:1" fill="#c92f14" d="M 124.5,63.5 C 127.975,64.8018 130.142,67.1351 131,70.5C 129.316,72.3513 127.483,74.018 125.5,75.5C 123.476,72.7943 120.81,71.461 117.5,71.5C 117.5,70.5 117.5,69.5 117.5,68.5C 120.803,68.2651 123.137,66.5985 124.5,63.5 Z"/></g>
<g><path style="opacity:1" fill="#110807" d="M 124.5,66.5 C 125.5,66.5 126.5,66.5 127.5,66.5C 127.082,72.6784 125.749,73.345 123.5,68.5C 123.863,67.8165 124.196,67.1499 124.5,66.5 Z"/></g>
<g><path style="opacity:1" fill="#bd3e23" d="M 114.5,65.5 C 117.001,65.5109 117.168,66.1776 115,67.5C 114.536,66.9056 114.369,66.2389 114.5,65.5 Z"/></g>
<g><path style="opacity:1" fill="#1b5c7b" d="M 110.5,61.5 C 110.5,62.5 110.5,63.5 110.5,64.5C 108.5,64.5 106.5,64.5 104.5,64.5C 104.5,63.5 104.5,62.5 104.5,61.5C 106.5,61.5 108.5,61.5 110.5,61.5 Z"/></g>
<g><path style="opacity:1" fill="#ab331c" d="M 109.5,82.5 C 111.167,82.5 112.833,82.5 114.5,82.5C 114.5,83.5 114.5,84.5 114.5,85.5C 112.833,85.5 111.167,85.5 109.5,85.5C 109.5,84.5 109.5,83.5 109.5,82.5 Z"/></g>
<g><path style="opacity:1" fill="#9c2615" d="M 48.5,65.5 C 49.2223,66.5511 50.2223,67.2178 51.5,67.5C 52.772,75.3394 55.772,82.3394 60.5,88.5C 61.4756,89.8149 62.4756,91.1482 63.5,92.5C 63.0431,93.2975 62.3764,93.6309 61.5,93.5C 54.486,85.4688 50.1527,76.1354 48.5,65.5 Z"/></g>
<g><path style="opacity:1" fill="#aa3828" d="M 75.5,82.5 C 76.9778,82.238 78.3112,82.5713 79.5,83.5C 77.9547,84.4519 76.288,84.7852 74.5,84.5C 74.3284,83.5084 74.6618,82.8417 75.5,82.5 Z"/></g>
<g><path style="opacity:1" fill="#c73f1e" d="M 35.5,83.5 C 36.5676,82.5655 37.901,82.2322 39.5,82.5C 39.5,83.5 39.5,84.5 39.5,85.5C 38.1266,85.6567 36.7932,85.49 35.5,85C 36.7383,84.31 36.7383,83.81 35.5,83.5 Z"/></g>
<g><path style="opacity:1" fill="#b52e14" d="M 85.5,84.5 C 83.0639,87.8715 80.0639,90.5381 76.5,92.5C 74.6565,90.7211 73.9898,88.3878 74.5,85.5C 76.7659,85.1412 78.5993,85.8078 80,87.5C 82.6833,86.1073 82.85,84.7739 80.5,83.5C 82.6551,82.9986 84.3218,81.9986 85.5,80.5C 85.1872,76.9581 85.5206,73.6248 86.5,70.5C 86.3359,73.1873 86.5026,75.854 87,78.5C 87.498,75.5184 87.6646,72.5184 87.5,69.5C 88.8333,69.5 90.1667,69.5 91.5,69.5C 91.4192,75.32 89.4192,80.32 85.5,84.5 Z"/></g>
<g><path style="opacity:1" fill="#f5f6f6" d="M 21.5,87.5 C 26.43,87.1975 31.2633,87.5308 36,88.5C 37.5204,92.3749 37.8538,96.3749 37,100.5C 35.2111,102.229 33.0444,102.896 30.5,102.5C 30.5,104.833 30.5,107.167 30.5,109.5C 29.5,109.5 28.5,109.5 27.5,109.5C 27.5,106.167 27.5,102.833 27.5,99.5C 29.5,99.5 31.5,99.5 33.5,99.5C 33.5,96.5 33.5,93.5 33.5,90.5C 30.5,90.5 27.5,90.5 24.5,90.5C 24.5,97.8333 24.5,105.167 24.5,112.5C 23.5,112.5 22.5,112.5 21.5,112.5C 21.5,104.167 21.5,95.8333 21.5,87.5 Z"/></g>
<g><path style="opacity:1" fill="#fafafb" d="M 115.5,112.5 C 113.973,112.573 112.973,111.906 112.5,110.5C 112.5,109.167 112.5,107.833 112.5,106.5C 113.5,106.5 114.5,106.5 115.5,106.5C 115.5,107.5 115.5,108.5 115.5,109.5C 118.5,109.5 121.5,109.5 124.5,109.5C 124.5,106.833 124.5,104.167 124.5,101.5C 120.837,102.112 117.17,102.279 113.5,102C 109.173,89.3264 113.506,84.6598 126.5,88C 127.097,89.0617 127.43,90.2284 127.5,91.5C 125.127,97.1172 124.127,96.7839 124.5,90.5C 121.5,90.5 118.5,90.5 115.5,90.5C 115.5,93.5 115.5,96.5 115.5,99.5C 119.452,98.7279 123.452,98.3946 127.5,98.5C 127.666,102.846 127.499,107.179 127,111.5C 123.27,112.46 119.437,112.793 115.5,112.5 Z"/></g>
<g><path style="opacity:1" fill="#af2415" d="M 105.5,88.5 C 107.292,88.366 108.958,88.6993 110.5,89.5C 110.299,93.35 108.466,94.35 105,92.5C 104.517,91.552 104.351,90.552 104.5,89.5C 105.167,89.5 105.5,89.1667 105.5,88.5 Z"/></g>
<g><path style="opacity:1" fill="#9f200d" d="M 40.5,88.5 C 41.8333,88.5 43.1667,88.5 44.5,88.5C 45.2436,91.9496 43.9103,93.6162 40.5,93.5C 39.1667,91.8333 39.1667,90.1667 40.5,88.5 Z"/></g>
<g><path style="opacity:1" fill="#f9fbfa" d="M 27.5,92.5 C 28.8333,92.5 30.1667,92.5 31.5,92.5C 31.5,94.1667 31.5,95.8333 31.5,97.5C 30.1667,97.5 28.8333,97.5 27.5,97.5C 27.5,95.8333 27.5,94.1667 27.5,92.5 Z"/></g>
<g><path style="opacity:1" fill="#f4f5f5" d="M 118.5,92.5 C 119.833,92.5 121.167,92.5 122.5,92.5C 122.5,93.8333 122.5,95.1667 122.5,96.5C 121.167,96.5 119.833,96.5 118.5,96.5C 118.5,95.1667 118.5,93.8333 118.5,92.5 Z"/></g>
<g><path style="opacity:1" fill="#f2f2f3" d="M 39.5,96.5 C 40.5,96.5 41.5,96.5 42.5,96.5C 43.4946,112.478 44.4946,112.478 45.5,96.5C 47.1667,96.5 48.8333,96.5 50.5,96.5C 52.29,109.633 53.6233,109.633 54.5,96.5C 55.5,96.5 56.5,96.5 57.5,96.5C 57.4828,98.5648 57.1495,100.565 56.5,102.5C 56.5405,105.881 56.2071,109.214 55.5,112.5C 53.5,112.5 51.5,112.5 49.5,112.5C 48.5018,96.5091 47.5018,96.5091 46.5,112.5C 44.5,112.5 42.5,112.5 40.5,112.5C 40.0199,107.178 39.6865,101.845 39.5,96.5 Z"/></g>
<g><path style="opacity:1" fill="#f0f0f0" d="M 70.5,97.5 C 70.6664,106.173 70.4998,114.84 70,123.5C 69.3333,122.833 68.6667,122.167 68,121.5C 68.5678,114.503 66.9011,108.17 63,102.5C 62.6667,108.5 62.3333,114.5 62,120.5C 61.2917,119.619 60.4584,118.953 59.5,118.5C 59.5,113.5 59.5,108.5 59.5,103.5C 59.5,101.167 59.5,98.8333 59.5,96.5C 61.288,96.2148 62.9547,96.5481 64.5,97.5C 66.9177,104.194 67.9177,103.861 67.5,96.5C 68.791,96.2627 69.791,96.596 70.5,97.5 Z"/></g>
<g><path style="opacity:1" fill="#f8f8f8" d="M 79.5,96.5 C 79.1788,98.0481 78.1788,98.7148 76.5,98.5C 76.6663,105.841 76.4997,113.174 76,120.5C 75.586,120.957 75.086,121.291 74.5,121.5C 74.094,113.257 73.094,105.257 71.5,97.5C 73.9479,96.5269 76.6146,96.1936 79.5,96.5 Z"/></g>
<g><path style="opacity:1" fill="#060b0d" d="M 85.5,84.5 C 87.9726,84.0882 89.3059,85.0882 89.5,87.5C 88.7974,89.7157 87.4641,91.549 85.5,93C 88.9368,91.92 91.6034,89.5867 93.5,86C 94.635,85.2506 95.635,85.4173 96.5,86.5C 95.1285,88.6198 95.7952,89.6198 98.5,89.5C 98.238,88.0222 98.5713,86.6888 99.5,85.5C 99.8333,85.6667 100.167,85.8333 100.5,86C 99.5939,87.6995 99.2606,89.5328 99.5,91.5C 100.833,91.5 102.167,91.5 103.5,91.5C 103.246,89.5992 103.58,88.9326 104.5,89.5C 104.351,90.552 104.517,91.552 105,92.5C 108.466,94.35 110.299,93.35 110.5,89.5C 111.461,91.2646 111.795,93.2646 111.5,95.5C 107.629,95.185 103.962,95.5184 100.5,96.5C 100.5,101.833 100.5,107.167 100.5,112.5C 104.042,112.813 107.375,112.479 110.5,111.5C 109.082,109.692 107.082,109.025 104.5,109.5C 107.33,108.063 109.997,108.396 112.5,110.5C 112.973,111.906 113.973,112.573 115.5,112.5C 115.611,113.117 115.944,113.617 116.5,114C 118.81,114.497 121.143,114.663 123.5,114.5C 116.664,115.789 109.664,116.956 102.5,118C 101.294,119.018 101.627,119.518 103.5,119.5C 106.115,118.731 108.781,118.397 111.5,118.5C 113.527,118.338 115.527,118.505 117.5,119C 116.584,119.278 115.918,119.778 115.5,120.5C 111.325,120.395 107.158,120.395 103,120.5C 101.184,121.329 99.3506,122.163 97.5,123C 88.6343,124.701 79.801,125.534 71,125.5C 67.9735,125.923 65.6401,124.923 64,122.5C 61.9659,124.56 59.9659,124.226 58,121.5C 53,121.5 48,121.5 43,121.5C 40.4668,121.05 38.3002,120.05 36.5,118.5C 40.1788,118.724 43.8455,119.058 47.5,119.5C 48.1515,118.909 48.8182,118.243 49.5,117.5C 51.0421,118.747 52.5421,118.747 54,117.5C 54.3076,118.308 54.8076,118.975 55.5,119.5C 56.7276,117.824 58.0609,117.491 59.5,118.5C 60.4584,118.953 61.2917,119.619 62,120.5C 62.3333,114.5 62.6667,108.5 63,102.5C 66.9011,108.17 68.5678,114.503 68,121.5C 68.6667,122.167 69.3333,122.833 70,123.5C 70.4998,114.84 70.6664,106.173 70.5,97.5C 70.8333,97.5 71.1667,97.5 71.5,97.5C 73.094,105.257 74.094,113.257 74.5,121.5C 75.086,121.291 75.586,120.957 76,120.5C 76.4997,113.174 76.6663,105.841 76.5,98.5C 78.1788,98.7148 79.1788,98.0481 79.5,96.5C 77.369,95.6862 75.0356,95.1862 72.5,95C 74.437,94.8784 75.7703,94.045 76.5,92.5C 80.0639,90.5381 83.0639,87.8715 85.5,84.5 Z M 99.5,91.5 C 99.189,92.4778 98.5223,93.1445 97.5,93.5C 96.2054,92.9017 94.8721,92.4017 93.5,92C 94.0253,91.3076 94.6919,90.8076 95.5,90.5C 96.7362,91.2458 98.0695,91.5792 99.5,91.5 Z"/></g>
<g><path style="opacity:1" fill="#f6f7f7" d="M 91.5,96.5 C 91.5,101.833 91.5,107.167 91.5,112.5C 89.8235,111.817 89.1568,110.483 89.5,108.5C 88.5,108.5 87.5,108.5 86.5,108.5C 87.1102,112.635 86.2768,116.301 84,119.5C 83.5004,112.508 83.3337,105.508 83.5,98.5C 82.325,98.719 81.325,98.3857 80.5,97.5C 84.1073,96.5108 87.774,96.1774 91.5,96.5 Z"/></g>
<g><path style="opacity:1" fill="#f4f5f5" d="M 93.5,96.5 C 95.4302,100.373 96.0969,104.706 95.5,109.5C 96.8333,109.5 98.1667,109.5 99.5,109.5C 99.5,110.5 99.5,111.5 99.5,112.5C 97.5,112.5 95.5,112.5 93.5,112.5C 93.5,107.167 93.5,101.833 93.5,96.5 Z"/></g>
<g><path style="opacity:1" fill="#fafbfb" d="M 101.5,96.5 C 104.572,96.1826 107.572,96.5159 110.5,97.5C 108.257,98.4742 105.924,98.8076 103.5,98.5C 103.5,99.5 103.5,100.5 103.5,101.5C 111.5,102.167 111.5,102.833 103.5,103.5C 103.205,105.735 103.539,107.735 104.5,109.5C 107.082,109.025 109.082,109.692 110.5,111.5C 107.5,111.5 104.5,111.5 101.5,111.5C 101.5,106.5 101.5,101.5 101.5,96.5 Z"/></g>
<g><path style="opacity:1" fill="#050b0b" d="M 86.5,98.5 C 87.5,98.5 88.5,98.5 89.5,98.5C 89.5,100.833 89.5,103.167 89.5,105.5C 88.5,105.5 87.5,105.5 86.5,105.5C 86.5,103.167 86.5,100.833 86.5,98.5 Z"/></g>
<g><path style="opacity:1" fill="#3d3f40" d="M 91.5,96.5 C 92.1667,96.5 92.8333,96.5 93.5,96.5C 93.5,101.833 93.5,107.167 93.5,112.5C 92.8333,112.5 92.1667,112.5 91.5,112.5C 91.5,107.167 91.5,101.833 91.5,96.5 Z"/></g>
<g><path style="opacity:1" fill="#9ca0a0" d="M 100.5,96.5 C 100.833,96.5 101.167,96.5 101.5,96.5C 101.5,101.5 101.5,106.5 101.5,111.5C 104.5,111.5 107.5,111.5 110.5,111.5C 107.375,112.479 104.042,112.813 100.5,112.5C 100.5,107.167 100.5,101.833 100.5,96.5 Z"/></g>
<g><path style="opacity:1" fill="#f2f3f3" d="M 118.5,103.5 C 119.833,103.5 121.167,103.5 122.5,103.5C 122.5,104.833 122.5,106.167 122.5,107.5C 121.167,107.5 119.833,107.5 118.5,107.5C 118.5,106.167 118.5,104.833 118.5,103.5 Z"/></g>
<g><path style="opacity:1" fill="#a02b17" d="M 47.5,119.5 C 43.8455,119.058 40.1788,118.724 36.5,118.5C 33.9471,117.745 31.2804,117.078 28.5,116.5C 26.076,116.808 23.7427,116.474 21.5,115.5C 22.1667,115.167 22.8333,114.833 23.5,114.5C 26.8058,115.163 30.1392,115.663 33.5,116C 38.4966,116.432 43.1633,117.599 47.5,119.5 Z"/></g>
<g><path style="opacity:1" fill="#a63319" d="M 123.5,114.5 C 124.978,114.238 126.311,114.571 127.5,115.5C 125.604,116.466 123.604,116.799 121.5,116.5C 117.96,116.753 114.627,117.419 111.5,118.5C 108.781,118.397 106.115,118.731 103.5,119.5C 101.627,119.518 101.294,119.018 102.5,118C 109.664,116.956 116.664,115.789 123.5,114.5 Z"/></g>
<g><path style="opacity:1" fill="#bd220e" d="M 90.5,115.5 C 91.5,115.5 92.5,115.5 93.5,115.5C 93.5,116.5 93.5,117.5 93.5,118.5C 92.5,118.5 91.5,118.5 90.5,118.5C 90.5,117.5 90.5,116.5 90.5,115.5 Z"/></g>
<g><path style="opacity:1" fill="#a7210f" d="M 94.5,115.5 C 95.8333,115.5 97.1667,115.5 98.5,115.5C 98.5,116.5 98.5,117.5 98.5,118.5C 96.0274,118.912 94.6941,117.912 94.5,115.5 Z"/></g>
<g><path style="opacity:1" fill="#020102" d="M 28.5,116.5 C 31.2804,117.078 33.9471,117.745 36.5,118.5C 38.3002,120.05 40.4668,121.05 43,121.5C 48,121.5 53,121.5 58,121.5C 59.9659,124.226 61.9659,124.56 64,122.5C 65.6401,124.923 67.9735,125.923 71,125.5C 79.801,125.534 88.6343,124.701 97.5,123C 99.3506,122.163 101.184,121.329 103,120.5C 107.158,120.395 111.325,120.395 115.5,120.5C 115.5,120.833 115.5,121.167 115.5,121.5C 112.272,123.162 108.939,124.829 105.5,126.5C 96.9109,127.587 88.4109,128.92 80,130.5C 78.5391,129.117 77.7058,129.451 77.5,131.5C 75.9582,130.699 74.2915,130.366 72.5,130.5C 64.0707,128.437 55.5707,126.771 47,125.5C 45.4173,125.493 43.7506,125.826 42,126.5C 38.578,124.534 35.078,122.867 31.5,121.5C 32.2389,121.631 32.9056,121.464 33.5,121C 30.2744,119.801 26.941,119.301 23.5,119.5C 25.42,118.935 27.0867,117.935 28.5,116.5 Z"/></g>
<g><path style="opacity:1" fill="#a22915" d="M 23.5,119.5 C 26.941,119.301 30.2744,119.801 33.5,121C 32.9056,121.464 32.2389,121.631 31.5,121.5C 30.1667,121.5 28.8333,121.5 27.5,121.5C 26.1667,120.833 24.8333,120.167 23.5,119.5 Z"/></g>
<g><path style="opacity:1" fill="#c8341a" d="M 115.5,121.5 C 115.5,121.167 115.5,120.833 115.5,120.5C 118.799,119.624 122.132,119.457 125.5,120C 122.173,120.61 118.839,121.11 115.5,121.5 Z"/></g>
<g><path style="opacity:0.986" fill="#030708" d="M 121.5,116.5 C 122.37,118.599 123.703,118.932 125.5,117.5C 126.355,119.955 127.355,122.288 128.5,124.5C 113.119,128.679 97.4523,132.179 81.5,135C 79.2602,137.087 76.9268,138.921 74.5,140.5C 72.0732,138.921 69.7398,137.087 67.5,135C 51.605,131.924 35.9383,128.424 20.5,124.5C 22.8209,123.523 25.1542,122.523 27.5,121.5C 28.8333,121.5 30.1667,121.5 31.5,121.5C 35.078,122.867 38.578,124.534 42,126.5C 43.7506,125.826 45.4173,125.493 47,125.5C 55.5707,126.771 64.0707,128.437 72.5,130.5C 70.9428,133.163 71.6095,135.163 74.5,136.5C 76.756,135.579 77.756,133.912 77.5,131.5C 77.7058,129.451 78.5391,129.117 80,130.5C 88.4109,128.92 96.9109,127.587 105.5,126.5C 108.939,124.829 112.272,123.162 115.5,121.5C 118.839,121.11 122.173,120.61 125.5,120C 122.132,119.457 118.799,119.624 115.5,120.5C 115.918,119.778 116.584,119.278 117.5,119C 115.527,118.505 113.527,118.338 111.5,118.5C 114.627,117.419 117.96,116.753 121.5,116.5 Z"/></g>
<g><path style="opacity:1" fill="#b42510" d="M 72.5,130.5 C 74.2915,130.366 75.9582,130.699 77.5,131.5C 77.756,133.912 76.756,135.579 74.5,136.5C 71.6095,135.163 70.9428,133.163 72.5,130.5 Z"/></g>
<g><path style="opacity:1" fill="#340b04" d="M 73.5,132.5 C 75.337,132.639 75.6704,133.306 74.5,134.5C 73.7025,134.043 73.3691,133.376 73.5,132.5 Z"/></g>
</svg>
