<?xml version="1.0" standalone="no"?>
<!DOCTYPE svg PUBLIC "-//W3C//DTD SVG 20010904//EN"
 "http://www.w3.org/TR/2001/REC-SVG-20010904/DTD/svg10.dtd">
<svg version="1.0" xmlns="http://www.w3.org/2000/svg"
 width="1500.000000pt" height="1500.000000pt" viewBox="0 0 1500.000000 1500.000000"
 preserveAspectRatio="xMidYMid meet">
<metadata>
Created by potrace 1.10, written by Peter Selinger 2001-2011
</metadata>
<g transform="translate(0.000000,1500.000000) scale(0.100000,-0.100000)"
fill="#000000" stroke="none">
<path d="M6595 14243 c-27 -3 -166 -40 -295 -78 -25 -8 -76 -21 -115 -30 -38
-9 -110 -33 -160 -52 -165 -65 -552 -275 -670 -362 -54 -41 -142 -102 -245
-171 -136 -92 -235 -174 -421 -350 -211 -199 -345 -335 -407 -414 -26 -32 -56
-70 -68 -84 l-21 -26 -144 32 c-306 66 -313 67 -514 67 -156 0 -203 -3 -260
-19 -151 -41 -293 -122 -433 -246 -75 -67 -105 -104 -197 -250 -12 -19 -42
-66 -67 -105 -24 -38 -60 -96 -78 -127 -19 -32 -59 -84 -89 -116 -117 -124
-227 -248 -264 -296 -44 -58 -43 -78 4 -137 36 -45 138 -125 194 -150 22 -10
72 -38 110 -63 130 -83 289 -155 495 -226 112 -38 216 -70 231 -70 14 0 38 -9
53 -21 23 -18 26 -27 26 -84 0 -43 -5 -66 -15 -75 -23 -19 -30 -78 -13 -114
11 -22 14 -52 11 -106 -3 -41 0 -94 5 -116 7 -31 6 -50 -4 -74 -8 -18 -14 -60
-14 -94 0 -57 3 -65 33 -93 44 -43 89 -63 137 -63 44 0 52 -17 27 -55 -45 -65
-146 -342 -173 -472 -28 -136 18 -298 126 -441 94 -125 317 -336 465 -439 194
-137 188 -131 171 -155 -8 -11 -38 -36 -68 -56 -64 -43 -373 -351 -481 -480
-101 -122 -135 -190 -157 -318 -15 -90 -22 -108 -58 -157 -23 -30 -88 -94
-145 -140 -132 -109 -331 -315 -391 -405 -65 -98 -106 -194 -121 -281 -13 -71
-15 -75 -67 -119 -94 -80 -233 -225 -282 -295 -84 -118 -126 -294 -105 -441 9
-72 9 -75 -19 -122 -64 -110 -88 -223 -71 -335 21 -135 44 -191 151 -352 70
-107 78 -123 78 -167 0 -87 38 -236 87 -337 55 -116 183 -320 237 -380 69 -75
161 -146 239 -183 68 -33 87 -47 87 -67 0 -41 146 -227 224 -286 135 -102 266
-140 461 -135 l120 2 22 -34 c33 -50 96 -104 151 -130 60 -29 130 -50 163 -50
24 0 65 -24 200 -118 31 -21 63 -42 70 -46 8 -3 28 -15 44 -26 17 -11 37 -23
45 -27 8 -4 58 -32 110 -63 52 -31 122 -69 155 -84 65 -30 76 -36 180 -89 204
-103 616 -279 720 -306 17 -5 41 -13 55 -19 117 -48 508 -152 665 -176 61 -10
144 -25 185 -34 96 -20 268 -20 385 1 50 9 137 24 195 33 58 9 137 25 175 34
160 42 311 82 318 87 11 7 256 93 292 102 17 5 44 14 60 21 44 19 85 35 125
50 19 7 60 24 90 38 30 13 89 39 130 57 41 18 145 67 231 109 86 42 158 76
161 76 3 0 74 42 159 93 85 51 168 98 184 105 17 6 76 11 135 10 89 -1 116 3
178 25 108 38 175 82 271 178 l86 85 119 13 c227 24 364 87 507 231 60 61 119
160 167 282 7 17 35 41 79 66 134 79 326 289 395 432 97 204 121 281 137 447
7 75 11 86 43 121 31 35 77 105 120 185 66 123 82 306 38 422 -21 53 -24 79
-25 215 -1 165 -13 237 -62 354 -31 74 -101 181 -163 249 -65 71 -100 125
-100 154 0 38 -113 366 -180 522 -74 173 -97 219 -163 331 l-51 84 -1 101 c0
114 -13 148 -88 237 -87 104 -609 600 -758 721 -139 112 -152 125 -146 140 3
8 48 49 100 91 53 42 122 104 154 138 32 34 79 83 104 109 152 154 240 344
226 487 -12 123 -115 418 -228 648 -27 56 -60 133 -73 170 -12 38 -31 90 -42
116 -21 54 -13 72 17 39 24 -26 60 -41 95 -41 23 0 24 -2 24 -73 0 -66 3 -79
29 -114 30 -42 89 -73 139 -73 15 0 48 10 72 23 60 29 90 82 90 158 0 88 -52
150 -147 174 -47 12 -48 13 -54 57 -4 25 -15 60 -24 78 -17 32 -17 33 10 54
29 24 29 17 9 130 -6 37 -3 41 42 50 l31 7 6 -66 c10 -101 47 -148 129 -163
81 -15 146 18 169 85 6 19 9 74 7 126 l-3 91 120 52 c66 29 134 58 150 65 77
32 234 110 266 132 20 13 67 41 106 61 115 61 223 165 223 216 0 17 -45 72
-170 210 -101 111 -147 166 -190 226 -19 27 -50 72 -70 99 -19 28 -71 109
-115 180 -119 196 -292 364 -447 434 -242 110 -541 113 -958 12 -188 -46 -179
-46 -211 -9 -15 18 -69 83 -120 143 -52 61 -115 130 -142 155 -27 25 -113 108
-190 186 -138 137 -348 313 -453 380 -28 18 -58 39 -65 47 -48 47 -284 196
-454 286 -55 30 -111 62 -125 71 -28 19 -259 120 -330 143 -25 8 -70 20 -100
27 -30 7 -87 23 -127 36 -39 12 -95 27 -125 33 -29 6 -84 17 -123 25 -67 15
-116 17 -180 9z m-45 -217 c0 -8 -17 -21 -37 -30 -21 -9 -58 -27 -83 -41 -25
-13 -76 -38 -115 -57 -61 -29 -129 -71 -230 -142 -61 -44 -84 -71 -37 -47 9 5
46 24 82 41 36 18 72 38 81 46 24 21 159 74 190 74 19 0 30 -6 34 -20 7 -22
25 -27 25 -7 0 16 77 90 103 100 14 5 20 2 24 -12 5 -20 42 -29 133 -34 29 -1
44 -6 43 -14 -4 -18 35 -36 63 -29 18 5 31 0 51 -20 15 -15 48 -34 74 -43 26
-10 53 -22 61 -27 7 -6 36 -19 63 -28 69 -25 270 -109 361 -151 42 -19 79 -35
84 -35 4 0 34 -20 66 -45 31 -25 61 -45 65 -45 7 0 45 -29 132 -101 59 -49 41
-87 -27 -55 -19 9 -38 16 -44 16 -5 0 -58 30 -118 66 -134 81 -269 149 -349
175 -33 11 -84 31 -113 44 -29 14 -64 25 -79 25 -15 0 -35 8 -45 17 -14 12
-21 14 -30 5 -8 -8 -4 -13 16 -18 14 -3 26 -10 26 -14 0 -5 9 -12 20 -15 11
-3 20 -13 20 -21 0 -8 8 -18 18 -21 9 -4 38 -21 63 -39 25 -17 75 -48 112 -68
37 -20 93 -54 125 -76 31 -22 87 -61 124 -86 95 -65 155 -124 137 -134 -7 -5
-10 -12 -6 -17 4 -4 17 -1 29 6 15 9 23 10 31 2 9 -9 3 -19 -22 -40 -32 -27
-33 -29 -12 -36 11 -3 21 -11 21 -16 0 -5 13 -9 29 -9 26 0 30 4 36 40 12 69
19 72 182 68 114 -2 146 -6 153 -18 15 -23 13 -196 -2 -207 -7 -6 -35 -13 -61
-16 -26 -2 -50 -7 -53 -10 -3 -3 2 -19 10 -35 9 -17 13 -38 10 -46 -4 -10 -1
-16 8 -16 7 0 22 -13 31 -30 10 -16 22 -30 27 -30 5 0 28 -26 52 -57 58 -77
59 -79 52 -97 -9 -23 -41 -11 -80 30 -27 29 -39 35 -69 34 -11 -1 -68 32 -163
94 -90 59 -162 99 -325 183 -74 38 -137 62 -192 72 -23 4 -46 10 -52 14 -6 4
-14 3 -17 -1 -10 -17 112 -109 230 -173 32 -18 75 -44 94 -59 19 -15 80 -56
135 -92 55 -35 144 -99 198 -142 54 -42 115 -87 135 -100 37 -23 299 -285 403
-402 136 -152 188 -215 215 -258 31 -51 123 -187 204 -304 27 -40 50 -75 50
-77 0 -3 24 -40 53 -83 49 -72 65 -97 140 -221 45 -76 125 -243 132 -280 4
-19 24 -60 45 -90 49 -73 125 -211 156 -283 13 -32 35 -81 48 -110 30 -66 42
-118 27 -118 -6 0 -11 7 -11 15 0 8 -9 19 -20 25 -11 6 -20 20 -20 30 0 11 -5
20 -11 20 -12 0 -1 -43 12 -48 5 -2 9 -12 9 -22 0 -10 4 -21 9 -24 21 -13 159
-317 207 -456 9 -25 29 -74 46 -109 16 -36 34 -84 40 -107 11 -38 9 -47 -15
-94 -33 -63 -94 -142 -186 -240 -43 -46 -66 -77 -59 -81 23 -14 -4 -38 -131
-113 -72 -43 -131 -82 -131 -85 0 -4 -36 -24 -80 -44 -44 -20 -80 -42 -80 -49
0 -13 -12 -21 -66 -47 -16 -7 -38 -18 -48 -23 -11 -6 -67 -26 -125 -44 -58
-19 -142 -51 -186 -71 -44 -19 -89 -39 -100 -44 -36 -16 -159 -61 -235 -86
-70 -23 -315 -145 -404 -201 -22 -14 -99 -54 -170 -89 -72 -36 -153 -82 -181
-102 -27 -20 -75 -50 -105 -65 -30 -16 -75 -43 -100 -60 -25 -17 -62 -42 -83
-54 -91 -53 -650 -577 -692 -649 -15 -26 -29 -35 -72 -44 -46 -11 -56 -10 -69
3 -13 13 -14 20 -3 39 35 66 553 594 634 648 22 14 90 65 151 113 61 47 148
111 195 142 46 30 102 68 124 84 84 60 298 194 358 223 34 17 98 53 142 80 44
27 114 63 155 80 93 38 301 143 423 213 51 29 100 55 109 59 33 12 26 -9 -10
-33 -67 -46 -97 -79 -85 -91 8 -8 16 -9 25 -2 7 5 78 34 158 63 80 29 150 56
155 60 6 4 33 14 60 24 46 16 95 37 137 57 10 5 23 9 29 9 6 0 26 7 45 16 19
9 43 14 54 11 10 -3 24 1 31 9 6 8 17 14 24 14 6 0 20 9 30 20 10 11 24 20 30
20 26 0 162 155 241 274 54 82 53 136 -5 259 -22 48 -41 90 -41 93 0 25 -161
374 -237 514 -65 121 -133 258 -133 271 0 7 -21 46 -46 88 -25 42 -49 83 -54
91 -108 178 -188 306 -249 395 -41 61 -90 133 -109 160 -18 28 -43 60 -55 73
-12 13 -35 47 -52 76 -119 210 -525 672 -725 824 -41 31 -109 85 -151 119 -42
33 -99 73 -126 88 -26 15 -66 39 -88 54 -48 31 -111 67 -145 84 -14 6 -30 17
-37 23 -15 14 -417 214 -493 244 -99 41 -159 59 -402 124 -162 43 -200 44
-304 10 -87 -28 -287 -121 -335 -155 -17 -12 -60 -37 -97 -56 -37 -20 -110
-64 -162 -99 -127 -86 -163 -112 -379 -273 -82 -61 -407 -405 -420 -444 -2 -7
-48 -70 -101 -142 -60 -80 -117 -170 -149 -235 -28 -58 -69 -130 -91 -160 -62
-83 -83 -118 -124 -200 -20 -41 -61 -122 -91 -178 -30 -57 -63 -132 -74 -165
-11 -34 -33 -89 -49 -122 -33 -66 -76 -161 -125 -275 -8 -19 -22 -51 -30 -70
-8 -19 -22 -53 -30 -75 -8 -22 -29 -74 -45 -115 -43 -106 -83 -211 -93 -240
-4 -14 -17 -50 -29 -80 -12 -30 -32 -86 -45 -125 -34 -97 -49 -138 -56 -150
-4 -5 -12 -36 -19 -67 l-13 -56 49 -84 c27 -45 54 -92 61 -103 7 -11 15 -27
19 -35 10 -21 70 -98 113 -143 20 -21 72 -61 116 -88 44 -27 109 -68 145 -91
102 -65 367 -194 454 -223 23 -7 58 -16 78 -19 27 -5 48 -19 75 -50 37 -43
136 -112 221 -155 150 -76 496 -346 698 -546 117 -115 145 -155 307 -435 31
-52 68 -113 82 -135 15 -22 34 -57 41 -79 20 -55 6 -70 -61 -62 -91 10 -90 10
-87 48 2 24 -6 46 -24 74 -15 21 -42 72 -61 113 -59 131 -274 407 -373 480
-36 27 -127 95 -202 152 -128 98 -201 147 -308 210 -25 15 -83 50 -130 78 -47
28 -103 56 -125 61 -131 33 -159 44 -315 117 -204 96 -499 284 -674 428 -105
86 -244 238 -292 318 -41 71 -67 158 -59 199 8 41 53 182 71 226 8 18 14 39
14 46 0 8 13 44 30 81 34 75 94 240 120 331 17 58 75 211 105 279 7 17 20 49
29 73 37 97 50 130 77 190 16 35 29 66 29 69 0 13 70 182 94 228 14 26 26 54
26 61 0 7 6 17 13 21 8 4 19 17 25 28 10 17 11 17 12 3 0 -9 -4 -20 -10 -23
-5 -3 -10 -18 -10 -33 0 -15 -7 -36 -15 -46 -8 -11 -15 -27 -15 -35 0 -9 -25
-81 -56 -161 -59 -154 -87 -229 -129 -350 -14 -41 -33 -89 -41 -107 -8 -17
-14 -36 -14 -42 0 -6 -6 -25 -14 -43 -8 -18 -22 -53 -31 -78 -10 -25 -23 -58
-30 -75 -23 -58 -34 -90 -40 -125 -4 -19 -40 -135 -81 -256 -76 -228 -84 -270
-60 -326 8 -18 22 -53 32 -78 19 -47 126 -217 166 -261 44 -50 397 -299 423
-299 4 0 30 -15 58 -33 73 -47 135 -82 267 -150 63 -32 119 -63 124 -68 6 -5
17 -9 25 -9 8 0 22 -7 32 -16 10 -9 24 -14 31 -11 8 4 5 8 -9 12 -13 4 -23 11
-23 14 0 4 -24 22 -52 41 -29 18 -65 41 -80 51 -15 11 -31 19 -36 19 -5 0 -27
12 -49 28 -54 37 -75 50 -98 62 -39 19 -246 176 -315 240 -24 22 -68 55 -96
71 -62 35 -117 95 -168 182 -15 25 -34 51 -43 59 -19 15 -103 185 -103 207 0
18 76 256 91 283 5 10 9 23 9 30 0 7 6 25 14 40 8 15 17 40 21 57 4 17 11 33
16 36 5 4 9 16 9 29 0 12 4 26 9 31 11 13 41 109 41 132 0 10 9 26 20 36 13
11 20 29 20 52 0 20 4 34 9 31 11 -7 21 18 21 55 0 16 4 29 10 29 5 0 7 7 3
16 -3 8 1 32 10 52 8 20 23 62 32 92 20 65 59 169 85 225 10 22 24 60 30 85
16 57 27 84 105 245 35 72 75 155 89 185 65 141 214 389 419 699 42 62 88 139
103 170 15 31 34 70 42 86 60 122 196 263 422 440 43 33 97 77 121 97 63 52
284 198 349 230 30 15 80 39 110 53 30 13 69 34 85 45 17 11 40 24 53 30 20 9
61 27 167 75 59 26 161 48 225 47 69 0 404 -81 510 -123 30 -12 69 -24 85 -27
17 -2 39 -11 50 -18 23 -16 55 -18 55 -4 0 6 -8 13 -17 17 -10 3 -25 11 -33
18 -8 7 -24 15 -35 18 -11 3 -45 15 -75 27 -123 48 -311 101 -463 131 -77 15
-103 10 -272 -46 -123 -41 -164 -58 -335 -142 -74 -36 -144 -69 -155 -73 -72
-26 -198 -94 -306 -166 -118 -78 -155 -97 -147 -75 4 12 154 149 194 177 21
15 28 28 26 47 -1 15 3 27 8 27 16 0 11 42 -7 62 -12 13 -14 21 -6 29 6 6 9
18 6 26 -3 8 0 25 7 39 10 18 11 30 2 48 -7 17 -7 27 1 35 8 8 7 11 -6 11 -17
0 -55 -28 -91 -68 -11 -13 -45 -42 -76 -65 -183 -139 -381 -361 -462 -517 -18
-35 -75 -128 -126 -205 -51 -77 -98 -148 -105 -158 -34 -53 -36 -54 -37 -21 0
29 68 180 96 214 13 16 94 154 149 253 67 123 179 258 357 432 98 96 176 175
172 175 -11 0 -167 -122 -250 -195 -44 -40 -105 -88 -135 -107 -30 -19 -81
-63 -113 -98 -133 -139 -390 -370 -413 -370 -39 0 -27 29 50 125 80 100 327
353 427 437 221 187 512 406 610 460 120 65 165 91 175 98 6 4 55 31 110 61
55 29 116 62 136 75 76 47 283 130 454 180 167 49 195 53 195 30z m1300 -751
c7 -9 10 -18 7 -21 -10 -11 -37 5 -37 21 0 19 14 19 30 0z m-125 -185 c11 -17
-5 -32 -21 -19 -7 6 -11 15 -8 20 7 12 21 11 29 -1z m-1070 -330 c113 -27 241
-62 257 -71 10 -5 23 -9 28 -9 17 0 98 -39 105 -50 3 -5 16 -10 28 -10 12 -1
35 -11 51 -24 34 -28 30 -40 -42 -119 -110 -122 -327 -482 -389 -646 -53 -141
-93 -388 -93 -576 0 -301 83 -555 298 -917 29 -48 52 -90 52 -94 0 -4 12 -22
26 -41 14 -19 24 -37 20 -40 -3 -3 -60 2 -128 10 -317 41 -760 23 -998 -41
-41 -11 -82 -23 -91 -27 -10 -3 -20 -2 -23 3 -8 13 23 98 74 207 53 112 52
109 94 235 32 95 35 109 24 138 -11 28 -10 37 5 63 9 17 17 38 17 48 0 9 4 21
9 27 17 17 41 192 41 297 0 116 -22 250 -57 352 -14 39 -27 81 -30 95 -3 14
-9 30 -13 35 -5 6 -17 37 -29 69 -21 59 -102 175 -162 230 -17 17 -43 48 -58
70 -14 23 -36 52 -48 66 -80 88 -155 337 -121 403 5 10 39 33 76 51 37 18 128
64 202 102 178 93 286 133 435 164 33 7 65 14 70 16 22 8 323 -5 370 -16z
m-2960 -170 c39 -5 95 -13 125 -19 30 -6 102 -18 160 -27 58 -9 146 -25 195
-35 50 -10 117 -23 150 -30 150 -30 183 -47 133 -69 -18 -9 -51 -5 -144 14
-201 41 -591 72 -776 61 -83 -5 -118 -3 -118 4 0 6 9 11 20 11 11 0 20 5 20
10 0 16 -30 12 -105 -15 -38 -13 -76 -25 -84 -25 -57 -1 -237 -131 -246 -179
-5 -28 -9 -33 -76 -116 -56 -69 -247 -254 -298 -287 -35 -24 -59 -25 -40 -2 7
9 18 24 24 34 5 10 33 51 60 92 28 40 58 89 69 108 81 154 155 252 236 312 38
28 152 87 215 111 128 48 323 67 480 47z m6400 -19 c79 -26 125 -46 155 -71
21 -16 22 -20 7 -20 -9 0 -25 4 -35 9 -48 25 -275 71 -350 71 -79 0 -99 -15
-41 -30 41 -11 42 -13 24 -26 -14 -10 -52 -14 -142 -14 -129 0 -190 -5 -556
-47 -233 -27 -258 -26 -244 11 4 11 19 16 46 16 38 0 114 12 251 40 30 6 69
13 85 16 17 3 68 11 115 19 200 33 239 39 310 46 121 12 306 2 375 -20z
m-6455 -161 c25 -25 26 -54 2 -78 -25 -25 -247 -51 -280 -33 -12 6 -22 18 -22
26 0 19 41 49 86 62 22 6 62 18 89 26 70 21 102 20 125 -3z m6344 -15 c39 -13
79 -33 90 -45 19 -19 19 -21 3 -37 -11 -12 -31 -17 -60 -16 -52 1 -164 12
-194 19 -47 9 -53 81 -10 103 28 14 85 6 171 -24z m-2259 -211 c27 -29 31 -59
14 -98 -9 -19 -8 -29 5 -47 21 -31 20 -51 -5 -83 -22 -29 -55 -33 -84 -12 -14
10 -19 28 -21 82 -1 38 -5 83 -9 99 -5 24 -2 36 19 58 31 34 50 34 81 1z
m-2381 -20 c24 -23 20 -70 -6 -88 -12 -9 -26 -16 -30 -16 -16 0 -48 40 -48 60
0 23 33 60 54 60 8 0 22 -7 30 -16z m-164 -116 l5 -108 40 -32 c86 -71 105
-97 105 -141 0 -35 -8 -51 -45 -97 -55 -68 -75 -108 -75 -153 0 -52 9 -67 40
-67 43 0 160 -42 225 -80 105 -63 194 -208 222 -363 45 -252 -72 -421 -360
-520 -31 -11 -37 -54 -37 -254 l0 -195 -53 -61 c-102 -118 -100 -112 -106
-271 -6 -132 -7 -141 -26 -141 -19 0 -20 8 -23 155 l-2 155 77 90 78 90 -3
170 c-2 94 -5 184 -9 202 -5 33 -28 61 -40 50 -12 -13 -22 -104 -22 -215 -1
-128 -8 -144 -101 -247 -76 -84 -77 -87 -85 -300 -7 -189 4 -379 27 -472 5
-23 8 -48 5 -55 -7 -18 -187 167 -222 228 -15 27 -42 74 -60 104 -76 129 -136
255 -155 325 -4 17 -18 66 -30 110 -24 86 -49 275 -50 366 0 31 5 81 10 110 6
30 15 101 20 159 8 98 29 184 36 150 2 -8 8 -60 13 -115 14 -138 50 -316 81
-400 19 -50 67 -160 121 -270 40 -82 122 -199 142 -203 15 -3 17 8 17 91 l0
95 68 82 c122 149 109 107 104 344 l-2 118 -34 32 c-18 17 -54 46 -80 64 -40
29 -94 87 -142 156 -12 18 -28 22 -102 26 -80 5 -87 7 -90 27 -4 26 12 31 98
35 l55 3 2 112 c5 245 78 370 278 474 l50 26 3 87 3 87 71 75 c68 72 71 76 57
100 -7 14 -47 60 -87 101 l-74 76 7 91 c8 102 10 108 33 104 14 -3 18 -21 22
-110z m2720 -148 c0 -13 -7 -20 -20 -20 -19 0 -27 20 -13 33 13 14 33 6 33
-13z m130 0 c0 -11 -7 -20 -15 -20 -8 0 -15 9 -15 20 0 11 7 20 15 20 8 0 15
-9 15 -20z m120 -6 c0 -16 -16 -19 -25 -4 -8 13 4 32 16 25 5 -4 9 -13 9 -21z
m-3045 -94 c24 -27 13 -65 -22 -78 -61 -21 -94 24 -57 76 19 27 55 28 79 2z
m-245 -35 c-7 -8 -16 -15 -21 -15 -14 0 -11 38 4 43 20 7 31 -11 17 -28z
m2803 20 c26 -13 31 -13 50 0 28 20 56 19 79 -2 38 -34 12 -73 -49 -73 -15 0
-34 4 -42 9 -8 5 -25 3 -43 -6 -26 -14 -31 -13 -49 3 -23 21 -24 33 -3 62 18
26 20 26 57 7z m256 -8 c25 -28 20 -54 -14 -63 -40 -10 -60 -1 -63 29 -7 56
38 75 77 34z m146 3 l22 -20 18 20 c13 15 31 20 65 20 69 0 90 -20 97 -95 4
-42 14 -74 34 -106 49 -78 63 -86 162 -92 49 -3 94 -10 100 -16 9 -9 12 -83
12 -248 0 -199 -2 -237 -15 -244 -97 -51 -111 -53 -207 -33 -31 6 -31 6 -38
-42 -10 -83 -25 -137 -50 -185 -20 -39 -24 -64 -29 -185 -5 -121 -8 -326 -7
-390 1 -11 18 -40 38 -64 35 -40 37 -48 43 -129 8 -98 0 -120 -49 -141 -68
-28 -141 17 -126 77 10 41 34 63 77 69 51 9 54 34 10 96 -19 26 -39 40 -68 47
-65 17 -80 78 -23 101 17 7 32 23 35 36 7 29 -2 290 -11 304 -9 15 -43 12 -70
-6 -35 -23 -45 -64 -52 -207 -6 -123 -7 -128 -27 -125 -20 3 -21 11 -26 126
-4 93 -9 125 -20 133 -17 11 -88 5 -101 -8 -5 -5 -9 -68 -10 -140 l-2 -132 75
-83 c41 -46 80 -93 87 -105 7 -14 11 -101 11 -262 l0 -241 -25 0 -25 0 0 235
0 234 -59 69 c-32 38 -73 84 -90 102 -17 19 -31 39 -31 45 0 114 -8 244 -17
259 -6 12 -38 27 -84 40 -80 23 -208 103 -256 160 -14 17 -42 63 -61 103 -47
99 -54 194 -23 313 43 163 111 251 247 320 67 34 70 35 193 35 123 0 128 -1
193 -34 101 -50 146 -94 185 -177 18 -40 38 -95 44 -122 9 -46 13 -51 44 -56
18 -4 38 -13 45 -21 18 -22 26 -19 40 15 23 55 83 79 136 54 30 -15 37 -15 45
-3 5 8 8 89 8 181 -1 203 1 199 -113 196 -77 -3 -78 -3 -105 29 -26 31 -95
159 -105 196 -4 12 -16 17 -39 17 -19 0 -45 9 -58 19 -22 17 -27 17 -44 5 -44
-32 -112 -7 -97 36 14 44 61 54 97 20z m-3135 -85 c15 -18 5 -35 -20 -35 -22
0 -34 15 -26 35 7 19 30 19 46 0z m-88 -37 c-9 -9 -12 -7 -12 12 0 19 3 21 12
12 9 -9 9 -15 0 -24z m132 -54 c10 -10 16 -33 16 -65 0 -62 -19 -74 -99 -62
-73 11 -78 31 -9 35 52 3 53 4 53 33 0 25 -4 30 -24 30 -13 0 -26 5 -28 12 -6
17 16 26 31 14 10 -8 17 -7 26 4 15 19 15 19 34 -1z m3112 0 c12 -3 46 -42 79
-90 78 -116 91 -124 182 -124 58 0 75 -3 80 -16 10 -26 -16 -34 -113 -34 -103
0 -105 1 -144 85 -35 74 -68 114 -104 123 -17 5 -97 7 -177 4 -102 -3 -152 -1
-168 7 -27 15 -23 33 10 42 30 9 326 11 355 3z m2039 -13 c45 -20 129 -101
153 -146 44 -85 54 -144 59 -366 5 -211 5 -217 -16 -238 -26 -26 -62 -27 -86
-1 -17 18 -18 40 -16 253 l2 232 -32 64 c-26 52 -44 72 -97 110 -97 69 -116
86 -108 99 11 18 96 14 141 -7z m-6900 -81 c138 -23 168 -30 181 -47 20 -27
14 -38 -40 -75 -67 -45 -88 -76 -91 -135 -3 -62 -3 -60 -21 -67 -40 -15 -313
60 -472 130 -18 7 -39 14 -46 14 -16 0 -131 56 -171 84 -32 22 -54 46 -55 59
0 10 38 9 44 -2 10 -16 70 -19 98 -5 15 8 57 19 95 25 37 6 88 14 113 19 61
10 303 10 365 0z m7320 -5 c22 -8 51 -15 65 -15 33 0 123 -32 146 -51 18 -15
52 -14 68 2 13 12 59 12 51 -1 -3 -5 -15 -10 -26 -10 -10 0 -19 -4 -19 -9 0
-13 -70 -45 -161 -75 -42 -13 -86 -29 -98 -35 -11 -6 -30 -16 -41 -21 -26 -13
-102 -40 -115 -40 -6 0 -16 24 -22 53 -7 28 -29 84 -48 122 -19 39 -35 76 -35
83 0 18 183 15 235 -3z m-913 -10 c18 -8 51 -19 73 -25 61 -15 297 -202 278
-221 -4 -4 -33 -12 -63 -17 l-55 -8 71 -8 c134 -14 112 -41 -32 -39 -123 2
-260 47 -397 132 -58 36 -70 63 -32 69 11 2 26 11 32 20 12 14 16 14 48 -1 20
-9 42 -17 50 -17 25 0 17 37 -15 73 -16 19 -30 40 -30 46 0 15 33 14 72 -4z
m341 -5 c109 -52 187 -134 187 -199 0 -65 12 -73 -197 125 -46 42 -83 81 -83
86 0 15 50 8 93 -12z m-6260 -24 c3 -7 -6 -30 -20 -51 -19 -28 -22 -40 -14
-48 19 -19 83 -11 138 17 59 29 88 33 97 11 12 -31 -53 -77 -238 -168 -34 -17
-77 -26 -92 -20 -8 3 -14 17 -14 31 0 14 -8 50 -17 79 -15 46 -24 59 -61 80
-23 14 -40 28 -37 32 19 19 106 37 236 49 9 1 19 -4 22 -12z m1120 -63 c9 -9
-13 -34 -24 -27 -14 8 -11 34 4 34 8 0 17 -3 20 -7z m-149 -34 c-7 -11 -94
-12 -94 -1 0 15 8 17 54 14 25 -2 43 -8 40 -13z m-1203 -91 c20 -39 21 -54 17
-214 -3 -161 -8 -197 -24 -181 -6 6 -32 323 -33 405 -1 44 14 40 40 -10z
m1212 -5 c43 -4 67 -10 67 -18 0 -17 -15 -22 -92 -30 -43 -5 -79 -3 -102 5
-40 13 -45 24 -18 39 20 12 53 13 145 4z m3767 -53 c0 -23 -24 -42 -44 -34
-21 8 -21 40 1 52 22 13 43 4 43 -18z m-5081 -143 c-1 -147 -9 -211 -22 -172
-10 30 -13 298 -4 313 20 30 27 -9 26 -141z m6586 -37 c0 -20 -119 -27 -141
-9 -24 20 3 29 76 27 50 -2 65 -6 65 -18z m-5270 -20 c0 -11 -15 -16 -59 -18
-32 -2 -66 0 -75 3 -14 6 -14 8 4 21 27 20 130 15 130 -6z m4940 -40 c57 -18
119 -42 129 -51 5 -4 1 -29 -8 -55 -22 -66 -21 -79 16 -113 l32 -30 -18 -38
c-9 -21 -20 -61 -24 -88 l-7 -50 -54 110 c-123 250 -158 347 -118 332 6 -2 30
-10 52 -17z m-5845 5 c0 -9 -69 -195 -81 -217 -7 -13 -27 -66 -45 -118 -17
-52 -36 -96 -42 -98 -19 -6 -24 73 -8 113 21 50 20 83 -4 123 -15 24 -20 50
-20 97 0 72 0 72 85 93 43 10 115 15 115 7z m6138 -73 c16 -13 23 -26 20 -43
-3 -22 -7 -24 -48 -21 -59 5 -67 14 -41 51 26 36 37 38 69 13z m-548 -24 c6
-13 19 -36 30 -53 11 -16 24 -39 30 -50 5 -11 14 -27 20 -35 13 -20 70 -145
70 -153 0 -4 14 -37 31 -74 17 -38 40 -88 51 -113 11 -25 50 -106 85 -180 74
-152 133 -295 133 -318 0 -20 56 -204 76 -250 16 -37 18 -80 4 -102 -10 -17
-6 -26 -50 104 -16 50 -30 100 -30 113 0 19 -20 80 -49 148 -5 11 -16 40 -26
65 -24 65 -38 96 -78 180 -50 106 -77 167 -137 310 -29 69 -64 150 -78 180
-66 144 -85 186 -93 202 -10 20 -12 48 -4 48 3 0 10 -10 15 -22z m-5940 -78
c0 -5 20 -21 45 -36 50 -29 49 -28 35 -55 -16 -28 -58 -25 -72 6 -15 32 -42
32 -56 -1 -10 -20 -18 -25 -40 -22 -42 5 -42 40 1 67 19 12 38 28 41 36 6 16
46 21 46 5z m6513 -159 c13 -52 -52 -97 -98 -67 -34 22 -32 58 6 95 l31 31 28
-20 c15 -11 30 -28 33 -39z m-6512 -5 c6 -13 22 -29 36 -35 19 -9 24 -18 21
-39 -2 -21 -8 -27 -28 -27 -20 0 -26 -7 -36 -40 l-12 -40 -11 30 c-6 17 -14
36 -16 43 -2 6 -14 12 -25 12 -26 0 -28 45 -2 59 10 5 24 21 32 35 17 32 27
33 41 2z m5090 -29 c-13 -13 -26 -3 -16 12 3 6 11 8 17 5 6 -4 6 -10 -1 -17z
m-236 -7 c0 -7 -6 -15 -12 -17 -8 -3 -13 4 -13 17 0 13 5 20 13 18 6 -3 12
-11 12 -18z m1823 -146 c51 -35 49 -98 -4 -123 -52 -23 -96 -9 -112 38 -11 30
5 76 31 93 20 13 61 9 85 -8z m-6648 -24 c11 -7 12 -15 4 -37 -7 -23 -16 -29
-45 -31 -30 -2 -39 2 -53 24 -21 31 -14 41 34 47 19 2 37 4 40 5 3 1 12 -2 20
-8z m4948 -37 c5 -17 -26 -29 -40 -15 -6 6 -7 15 -3 22 9 14 37 9 43 -7z m120
6 c-2 -6 -8 -10 -13 -10 -5 0 -11 4 -13 10 -2 6 4 11 13 11 9 0 15 -5 13 -11z
m-3658 -204 c0 -167 -1 -175 -21 -186 -34 -18 -46 4 -20 37 21 27 28 78 12
102 -4 7 -4 30 2 50 9 37 2 66 -24 103 -9 12 -8 22 6 42 9 15 24 27 31 27 11
0 14 -33 14 -175z m-120 150 c0 -8 -4 -15 -10 -15 -5 0 -10 7 -10 15 0 8 5 15
10 15 6 0 10 -7 10 -15z m-1258 -32 c25 -22 23 -36 -11 -72 -24 -26 -36 -31
-76 -31 -38 0 -52 5 -76 29 -20 21 -27 35 -22 48 10 28 24 33 54 17 39 -20 77
-18 91 6 15 24 17 24 40 3z m5278 -82 c0 -57 -24 -204 -45 -276 -63 -218 -66
-224 -151 -350 -108 -161 -193 -259 -307 -353 -39 -31 -90 -74 -115 -96 -50
-42 -89 -63 -99 -53 -3 4 1 24 10 44 19 46 77 234 77 250 0 34 36 93 153 253
104 140 124 160 167 160 20 0 41 -5 47 -11 6 -6 26 -9 44 -7 31 3 37 9 66 66
40 81 50 107 78 217 12 50 28 101 33 115 6 14 13 42 17 63 8 51 25 37 25 -22z
m-3954 -62 c3 -6 1 -16 -5 -22 -6 -6 -11 -21 -11 -33 0 -22 -26 -51 -36 -41
-5 5 -1 23 21 95 5 15 21 16 31 1z m2069 -64 c324 -54 553 -133 692 -238 23
-18 60 -61 83 -95 37 -56 41 -67 31 -88 -6 -14 -11 -33 -11 -43 0 -12 -10 -21
-25 -25 -25 -6 -25 -8 -25 -104 0 -125 -15 -248 -41 -338 -23 -78 -67 -132
-166 -206 -119 -87 -262 -103 -493 -53 -296 63 -324 67 -490 60 -144 -6 -284
-24 -355 -45 -243 -72 -314 -81 -425 -56 -100 23 -162 58 -240 136 -64 65 -93
109 -104 163 -20 90 -43 -52 -31 -196 8 -103 44 -221 84 -279 35 -49 103 -92
177 -111 55 -14 68 -14 120 -1 67 17 67 17 194 78 150 71 243 104 390 137 49
11 430 2 430 -11 0 -4 -95 -10 -211 -14 -116 -3 -220 -11 -230 -16 -10 -6 -38
-14 -61 -19 -48 -10 -90 -25 -163 -57 -27 -12 -61 -25 -75 -29 -14 -4 -41 -18
-60 -30 -32 -20 -57 -32 -163 -78 -27 -12 -66 -17 -137 -17 -87 0 -106 3 -157
27 -97 46 -199 166 -239 283 -16 45 -19 83 -18 215 0 244 40 466 114 635 82
190 167 253 455 338 195 58 327 83 490 93 176 11 554 1 660 -16z m-1635 -263
c0 -5 -9 -17 -20 -27 -16 -14 -20 -15 -20 -4 0 16 19 39 32 39 4 0 8 -4 8 -8z
m2566 -310 c44 -97 84 -330 84 -488 0 -223 -72 -348 -268 -466 l-87 -52 -115
0 c-87 0 -122 4 -145 16 -16 9 -54 26 -82 39 -29 13 -53 27 -53 31 0 11 68 10
74 -1 3 -5 44 -15 90 -21 111 -17 189 -3 265 48 60 40 161 139 161 158 0 6 7
17 15 24 8 7 15 21 15 32 0 10 6 29 14 41 15 25 30 147 30 252 0 156 -17 360
-32 382 -14 22 -11 53 5 53 4 -1 18 -22 29 -48z m-1026 -772 c0 -5 -15 -10
-34 -10 -19 0 -38 5 -41 10 -4 6 10 10 34 10 23 0 41 -4 41 -10z m85 -30 c4
-6 -5 -10 -20 -10 -15 0 -24 4 -20 10 3 6 12 10 20 10 8 0 17 -4 20 -10z m260
-91 c4 -6 5 -12 3 -14 -7 -7 -48 7 -48 16 0 13 37 11 45 -2z m-330 -43 c110
-26 160 -42 189 -58 32 -17 128 -39 180 -41 27 -1 51 -6 52 -12 4 -14 -84 -85
-196 -158 -132 -87 -194 -108 -387 -134 -114 -15 -132 -15 -245 0 -149 20
-207 35 -303 81 -87 43 -165 102 -205 158 -35 48 -38 68 -10 68 11 0 28 4 38
10 44 24 289 94 387 111 28 4 129 6 225 4 141 -4 194 -9 275 -29z m2870 -272
c50 -42 146 -133 215 -202 69 -69 146 -142 172 -163 111 -88 239 -215 259
-257 18 -37 20 -53 15 -115 -8 -82 -8 -82 114 -332 58 -121 80 -168 131 -280
32 -73 81 -206 107 -296 27 -90 30 -111 21 -138 -12 -35 -17 -28 133 -191 97
-106 98 -108 138 -200 49 -114 70 -197 70 -275 0 -71 -10 -103 -28 -91 -13 8
-46 80 -72 157 -50 149 -163 344 -327 566 -48 66 -65 103 -45 103 4 0 27 -18
52 -40 25 -22 50 -40 57 -40 13 0 6 38 -12 60 -17 20 -129 245 -148 295 -32
87 -47 123 -80 205 -20 47 -49 121 -65 165 -49 130 -124 267 -160 290 -39 25
-40 43 -4 51 49 10 52 13 52 42 0 22 -11 40 -45 71 -24 22 -50 41 -56 41 -19
0 -206 -97 -224 -116 -5 -6 -37 -31 -70 -55 -229 -165 -326 -243 -388 -315
-38 -44 -79 -90 -91 -104 -44 -48 -156 -201 -156 -211 0 -6 -17 -36 -37 -66
-33 -50 -38 -54 -46 -36 -8 18 -15 14 -72 -46 -35 -36 -74 -79 -87 -94 -27
-33 -58 -29 -58 8 0 65 23 286 36 349 27 132 72 271 129 402 91 208 105 241
105 248 0 41 -258 -282 -314 -392 -14 -28 -44 -97 -66 -154 -22 -57 -56 -139
-75 -183 -19 -44 -46 -125 -60 -180 -37 -139 -68 -232 -101 -296 -50 -98 -54
-107 -54 -129 0 -11 -4 -19 -9 -16 -4 3 -14 47 -21 97 -13 100 -5 477 12 534
17 57 58 338 58 400 0 28 -31 -42 -60 -135 -40 -132 -48 -163 -65 -250 -22
-114 -75 -310 -85 -310 -12 0 -29 171 -36 360 -12 349 27 709 89 811 14 25 56
60 122 104 55 37 116 82 135 100 59 54 153 98 202 93 33 -3 33 -4 36 -58 3
-57 -1 -69 -69 -215 -70 -148 -63 -179 13 -60 43 65 59 81 150 141 168 110
255 140 332 114 44 -14 99 -76 115 -131 l12 -41 92 6 c197 15 282 -58 215
-182 -13 -23 -58 -80 -100 -127 -102 -112 -103 -131 -6 -68 71 45 191 113 201
113 5 0 21 6 35 14 52 27 162 76 170 76 5 0 17 9 27 20 16 18 16 21 2 42 -21
32 -417 431 -559 563 -64 60 -114 113 -112 117 7 11 137 -80 239 -168z m-5616
-41 c-113 -115 -228 -232 -255 -261 -27 -30 -70 -76 -95 -103 -43 -47 -64 -78
-106 -157 -16 -31 -16 -35 4 -90 15 -41 25 -57 39 -57 14 0 29 -25 62 -100 24
-55 59 -132 78 -172 19 -39 34 -76 34 -82 0 -6 14 -45 31 -88 17 -42 29 -88
26 -100 -5 -29 15 -35 103 -31 l65 3 6 75 c4 41 7 167 7 280 1 161 -2 210 -13
230 -8 14 -14 35 -15 46 0 12 -7 27 -15 34 -8 7 -15 25 -15 40 0 34 -9 60 -21
60 -14 0 -11 -45 5 -87 31 -80 51 -413 26 -428 -14 -9 -93 68 -134 130 -55 82
-136 315 -136 390 0 58 18 83 88 116 35 17 83 51 107 74 67 65 151 96 171 63
4 -7 11 -70 14 -140 4 -70 10 -131 13 -135 13 -13 34 22 57 94 43 140 118 213
216 213 131 0 193 -95 180 -275 -14 -192 -25 -376 -30 -515 l-6 -145 15 80
c22 120 43 281 85 660 25 221 35 276 62 328 23 47 42 55 69 31 22 -20 22 -12
1 -179 -6 -44 -16 -152 -22 -240 -6 -88 -18 -232 -26 -320 -16 -181 -18 -383
-5 -404 7 -11 11 -6 14 20 47 317 69 423 110 533 14 38 50 76 71 76 44 0 196
-113 239 -179 13 -20 45 -59 70 -86 37 -42 47 -62 56 -110 11 -58 20 -81 22
-54 1 8 4 141 8 296 6 268 7 284 27 303 17 17 25 19 47 11 15 -6 31 -21 36
-34 5 -12 9 -126 10 -252 1 -127 6 -272 12 -323 6 -51 8 -101 4 -111 -7 -24
12 -74 26 -66 6 4 9 32 7 66 -4 76 8 89 58 65 l36 -17 -6 28 c-11 43 -19 143
-12 143 25 0 207 -201 324 -356 18 -24 33 -44 35 -44 1 0 1 26 0 57 -1 38 -6
59 -15 62 -20 6 -28 23 -28 64 0 25 -4 37 -14 37 -20 0 -27 14 -30 60 -3 42
-20 70 -42 70 -16 0 -34 31 -34 60 0 12 -10 25 -25 32 -22 10 -26 17 -23 47 2
29 8 37 26 39 19 3 22 -1 22 -27 0 -23 6 -33 27 -43 19 -9 28 -21 28 -38 0
-17 11 -32 38 -49 25 -17 37 -32 37 -48 0 -34 26 -92 45 -99 8 -4 18 -24 21
-45 4 -24 14 -44 25 -50 19 -10 59 -82 59 -107 0 -7 6 -12 13 -9 12 4 12 13 6
92 -4 38 -2 40 25 43 39 5 47 -6 60 -79 18 -100 33 -86 41 38 3 59 8 114 10
121 3 8 25 12 65 12 53 0 62 -3 69 -22 4 -12 4 -40 0 -62 -5 -23 -8 -57 -8
-76 l0 -35 20 37 c21 41 45 58 83 58 32 0 37 -26 13 -67 -11 -19 -14 -33 -8
-33 6 0 17 13 25 29 9 16 22 31 31 35 8 3 20 17 25 31 5 14 26 35 45 47 21 12
34 26 31 34 -5 13 38 54 58 54 6 1 20 15 31 33 13 20 30 33 46 35 16 2 30 12
37 26 6 13 23 26 39 29 19 4 33 17 43 39 9 21 23 34 38 36 12 2 30 16 39 30
23 37 43 52 70 52 25 0 29 -14 13 -54 -6 -18 -19 -27 -43 -31 -28 -5 -36 -13
-44 -38 -6 -22 -16 -33 -38 -39 -17 -4 -34 -17 -40 -30 -6 -13 -24 -27 -42
-32 -24 -6 -33 -15 -33 -31 0 -12 -16 -37 -37 -57 -21 -20 -51 -55 -68 -78
-16 -23 -42 -55 -57 -70 -16 -16 -28 -35 -28 -44 0 -8 -13 -29 -30 -46 -16
-17 -30 -38 -30 -46 0 -17 68 33 207 152 149 129 407 314 436 314 21 0 0 -35
-52 -87 -56 -57 -98 -119 -87 -130 3 -3 37 13 75 36 38 22 75 41 83 41 13 0
58 -169 58 -217 0 -13 5 -23 10 -23 6 0 10 1 10 3 1 1 7 76 15 167 19 224 43
436 55 485 5 22 10 54 10 70 0 61 62 150 112 161 48 10 62 -11 44 -66 -50
-162 -66 -318 -66 -638 0 -151 3 -285 6 -299 10 -39 22 -9 30 77 7 86 38 241
54 269 5 11 10 28 10 37 0 10 21 37 46 61 37 34 49 40 63 31 13 -8 27 -3 64
22 41 27 50 30 64 19 14 -12 15 -11 8 10 -6 19 -4 23 7 19 8 -3 22 0 33 8 10
8 27 14 37 14 17 0 34 7 78 31 90 51 92 51 108 36 9 -10 18 -49 23 -109 14
-146 30 -985 19 -1011 -5 -12 -17 -49 -26 -82 -23 -77 -137 -332 -154 -345
-15 -10 -69 -123 -64 -131 3 -5 7 -53 9 -106 2 -56 8 -99 14 -101 8 -3 8 -10
0 -23 -5 -11 -8 -23 -5 -28 3 -5 8 -30 11 -57 3 -27 7 -69 10 -94 3 -25 8 -78
10 -118 5 -76 23 -152 36 -152 10 0 24 -40 21 -61 -3 -19 54 -45 118 -54 25
-4 79 -13 120 -20 84 -15 226 -32 375 -45 223 -19 418 -45 446 -60 16 -9 19
-22 19 -85 l0 -75 -52 -41 c-65 -51 -287 -197 -348 -228 -25 -13 -47 -26 -50
-30 -3 -4 -47 -36 -99 -70 -51 -34 -105 -70 -120 -80 -14 -10 -60 -40 -101
-67 -41 -27 -91 -61 -110 -77 -47 -37 -45 -36 -128 -90 -79 -52 -119 -70 -133
-61 -6 3 -16 1 -24 -6 -10 -8 -39 -9 -117 0 -142 15 -148 17 -148 41 0 18 4
20 33 15 17 -3 73 -8 122 -12 50 -4 96 -10 104 -14 9 -5 37 7 76 34 34 22 102
67 151 98 49 32 108 71 132 88 23 16 45 30 47 30 5 0 97 62 105 70 6 6 126 85
181 118 20 12 41 22 48 22 6 0 55 33 110 73 54 39 127 90 161 111 35 21 78 52
97 69 30 26 34 35 31 71 -3 36 -6 41 -26 39 -24 -3 -199 -114 -272 -173 -46
-38 -284 -190 -296 -190 -10 0 -172 -106 -247 -160 -103 -76 -213 -140 -240
-140 -14 0 -31 9 -39 21 -12 19 -17 20 -37 10 -24 -13 -74 -10 -221 14 -139
22 -240 37 -325 46 -44 4 -129 15 -190 24 -179 25 -323 43 -430 55 -55 6 -127
15 -160 21 -33 6 -96 15 -140 19 -76 9 -128 15 -325 41 -47 7 -112 17 -145 24
l-60 13 110 1 c61 1 144 -3 185 -9 41 -5 120 -15 175 -21 55 -6 147 -18 205
-25 58 -8 150 -19 204 -24 54 -6 103 -13 108 -16 4 -3 52 -9 106 -14 53 -5
133 -14 177 -20 44 -6 132 -18 195 -26 63 -8 142 -20 175 -25 33 -6 103 -17
155 -24 165 -23 182 1 137 205 -25 113 -55 261 -77 380 -12 63 -28 142 -35
175 -30 135 -45 216 -61 330 -16 118 -36 225 -55 295 -5 19 -14 64 -20 100
-29 177 -64 369 -82 455 -9 39 -28 140 -42 225 -31 174 -48 218 -101 251 -36
22 -53 23 -358 35 -177 7 -440 13 -586 14 -160 0 -320 6 -405 15 -77 8 -201
15 -275 15 -74 0 -252 7 -395 15 -143 8 -307 15 -365 15 -58 0 -226 6 -375 15
-148 8 -400 20 -560 26 -159 6 -348 13 -418 16 -109 5 -134 3 -167 -12 -67
-30 -69 -56 -15 -236 25 -85 49 -165 54 -179 4 -14 16 -52 26 -85 9 -33 23
-77 31 -97 33 -89 42 -116 57 -163 25 -79 103 -373 121 -455 16 -71 31 -124
61 -230 7 -25 20 -70 28 -100 26 -95 49 -172 77 -260 16 -47 36 -112 45 -145
9 -33 20 -71 24 -84 12 -40 51 -62 132 -72 192 -25 309 -41 369 -50 36 -6 106
-14 155 -19 50 -5 106 -14 125 -20 19 -5 51 -10 70 -10 39 0 268 -32 520 -75
52 -8 131 -20 175 -25 189 -22 310 -41 318 -49 14 -14 -52 -32 -73 -21 -10 6
-58 10 -107 10 -48 1 -108 5 -133 11 -25 6 -81 16 -125 24 -44 8 -102 18 -130
24 -27 5 -74 10 -103 10 -29 1 -72 6 -95 11 -23 6 -76 15 -117 20 -41 5 -120
16 -175 24 -55 8 -140 20 -190 26 -49 6 -125 18 -168 26 -42 8 -103 14 -134
14 -31 0 -83 5 -115 10 -32 6 -86 15 -119 21 -77 13 -89 5 -64 -48 33 -69 87
-101 175 -104 49 -1 83 -12 88 -28 4 -12 -12 -13 -89 -8 -141 9 -155 16 -194
101 -17 39 -35 86 -39 105 -6 35 -31 71 -49 71 -23 0 -194 73 -212 91 -17 17
-18 21 -5 33 21 20 47 22 113 6 31 -7 60 -11 63 -7 12 12 -8 27 -35 27 -33 0
-74 40 -69 67 2 12 15 20 38 23 27 4 36 10 38 28 5 32 -28 112 -45 112 -23 0
-179 -118 -228 -172 -77 -86 -110 -149 -190 -363 -15 -40 -27 26 -20 110 22
260 131 456 316 566 38 23 66 46 63 51 -18 28 -186 -34 -249 -92 -11 -10 -32
-25 -47 -33 -25 -12 -92 -90 -184 -211 -17 -23 -41 -50 -53 -60 -11 -11 -21
-23 -21 -27 0 -12 -41 -53 -72 -73 -24 -16 -29 -16 -33 -3 -10 25 34 238 56
272 3 6 16 44 29 85 21 72 82 179 132 231 29 29 61 79 55 85 -2 2 -19 -11 -38
-29 -41 -39 -172 -116 -211 -124 -25 -5 -117 -93 -177 -169 -24 -30 -31 -30
-31 -1 0 67 193 356 296 444 96 81 203 150 246 158 50 10 162 67 166 85 1 9
-3 23 -10 32 -11 15 -20 16 -53 8 -22 -5 -60 -10 -85 -10 -57 0 -92 -19 -40
-21 19 0 46 -4 60 -8 l25 -7 -22 -12 c-12 -7 -27 -12 -33 -12 -37 0 -332 -191
-384 -248 -10 -12 -35 -27 -55 -33 -39 -13 -113 -54 -176 -97 -54 -37 -117
-136 -150 -235 -37 -109 -46 -297 -21 -430 18 -93 77 -271 107 -322 33 -55
169 -334 169 -346 0 -20 -45 10 -97 64 -192 201 -250 331 -260 587 -6 156 1
208 54 430 21 87 83 213 143 294 66 86 246 220 426 314 14 8 24 15 22 18 -11
10 -327 -114 -385 -152 -19 -12 -26 -12 -43 -2 -17 10 -20 21 -17 51 10 87
122 188 287 256 128 52 176 61 345 61 154 0 175 8 118 42 -77 45 -277 69 -483
57 -69 -4 -128 -5 -132 -1 -15 15 19 58 65 80 101 48 271 62 460 36 56 -7 62
7 16 35 -22 14 -69 23 -165 32 -121 11 -134 15 -134 32 0 11 9 21 20 24 14 4
19 11 15 23 -5 16 4 27 97 107 40 34 37 48 -9 37 -50 -11 -251 -113 -341 -173
-94 -63 -288 -241 -312 -288 -8 -15 -31 -57 -51 -93 -21 -36 -54 -105 -75
-155 -20 -49 -39 -92 -42 -95 -2 -3 -10 4 -18 14 -29 41 -12 190 32 280 52
107 207 261 391 390 19 14 21 24 21 108 0 141 45 223 233 424 126 134 157 163
274 251 44 34 114 97 157 142 69 74 75 84 68 109 -22 71 -30 149 -19 183 43
127 669 728 758 729 21 0 -12 -37 -180 -207z m4269 105 c15 -15 16 -117 1
-155 -6 -15 -15 -71 -19 -123 -5 -52 -18 -176 -30 -275 -20 -170 -21 -216 -18
-833 l3 -653 -43 -19 c-23 -11 -49 -17 -56 -14 -22 8 -27 167 -29 814 -1 541
1 599 21 771 20 169 48 337 72 429 6 21 20 42 37 52 33 21 45 22 61 6z m-2751
-634 c6 -16 -15 -37 -29 -28 -4 3 -8 14 -8 25 0 23 28 26 37 3z m1661 -30 c-5
-27 -48 -32 -48 -5 0 22 30 44 43 31 5 -4 7 -16 5 -26z m-1607 -24 c11 -6 19
-21 19 -36 0 -20 -4 -25 -21 -22 -27 4 -44 30 -36 52 7 19 12 20 38 6z m1522
-4 c22 -17 22 -29 -2 -50 -15 -14 -24 -15 -40 -6 -26 13 -27 45 -3 59 22 13
23 13 45 -3z m-73 -80 c0 -20 -37 -49 -55 -43 -20 8 -19 54 2 66 20 11 53 -3
53 -23z m-1372 -13 c2 -14 -4 -26 -18 -33 -24 -13 -40 -6 -40 19 0 41 52 54
58 14z m4232 -107 c0 -2 -19 -23 -42 -47 -46 -48 -119 -141 -137 -176 -6 -12
-11 -31 -11 -42 0 -10 -6 -21 -12 -24 -7 -2 -10 -7 -7 -11 4 -4 23 3 44 15 27
16 59 24 114 27 67 4 79 1 104 -18 20 -16 26 -27 21 -45 -3 -12 -1 -26 5 -29
5 -4 8 -13 5 -21 -3 -7 -1 -22 5 -33 8 -15 6 -34 -5 -73 -18 -60 -34 -88 -81
-142 -36 -40 -36 -60 0 -53 12 3 50 8 85 11 61 6 62 6 62 -20 0 -14 4 -25 9
-25 14 0 33 -57 27 -78 -15 -46 -73 -107 -167 -178 -120 -88 -254 -207 -241
-212 6 -2 52 13 103 34 150 58 221 74 341 74 131 0 194 -20 266 -85 83 -74 78
-140 -12 -165 -48 -13 -161 -11 -371 9 -262 25 -690 -58 -795 -154 -35 -31
-111 -85 -122 -85 -23 0 6 62 99 212 51 82 270 318 373 401 24 20 41 39 37 43
-3 4 -13 2 -20 -4 -7 -6 -56 -33 -108 -60 -133 -68 -191 -105 -295 -183 -94
-72 -108 -78 -117 -55 -7 17 27 183 50 246 42 116 128 331 154 381 66 133 267
359 386 434 34 22 79 51 100 64 74 48 153 83 153 67z m-5970 -631 c179 -8 429
-20 555 -26 127 -5 399 -14 605 -19 401 -9 829 -25 1105 -40 94 -6 319 -15
500 -21 397 -13 448 -18 453 -41 2 -12 -5 -19 -22 -24 -26 -6 -428 8 -731 26
-670 39 -1114 58 -1625 70 -228 6 -422 12 -430 15 -8 2 -166 7 -350 10 -184 4
-369 8 -410 11 -115 7 -210 26 -210 43 0 22 -18 22 560 -4z m-119 -86 c10 -19
41 -130 63 -221 8 -35 -19 -40 -29 -5 -3 12 -12 38 -20 57 -26 69 -48 159 -42
174 8 21 14 20 28 -5z m-266 -26 c22 -53 45 -158 44 -201 -1 -22 -3 -29 -6
-17 -3 11 -14 39 -24 62 -10 23 -19 52 -19 65 -1 13 -7 34 -15 48 -16 29 -20
80 -5 80 5 0 17 -16 25 -37z m125 -23 c54 -167 54 -170 42 -182 -9 -9 -13 -7
-18 8 -3 10 -11 35 -19 54 -44 122 -57 186 -34 178 6 -2 19 -28 29 -58z m274
34 c9 -8 16 -29 16 -45 0 -43 23 -72 115 -144 l82 -64 6 -61 c4 -33 14 -74 22
-90 8 -16 15 -38 15 -50 0 -11 9 -40 21 -64 17 -37 34 -53 103 -93 118 -71
215 -115 240 -109 12 3 26 2 32 -2 11 -7 69 -213 83 -297 4 -23 11 -46 15 -53
4 -7 12 -37 16 -65 18 -118 32 -184 46 -214 8 -17 14 -41 14 -53 0 -39 19 -57
84 -81 50 -17 77 -35 115 -74 28 -29 48 -55 44 -59 -14 -13 -35 -4 -76 32 -23
22 -72 53 -109 70 -36 17 -70 37 -74 44 -5 7 -12 38 -16 68 -13 87 -33 183
-46 213 -7 16 -12 32 -12 37 0 14 -30 21 -139 31 -118 11 -135 14 -126 29 4 6
55 10 121 10 l114 0 0 27 c0 25 -13 76 -45 183 -8 25 -15 56 -17 70 -2 20 -13
28 -54 42 -55 18 -123 53 -192 99 -24 16 -45 29 -47 29 -8 0 -92 60 -103 72
-11 14 -42 180 -42 231 0 42 -5 49 -66 88 -63 42 -117 89 -138 121 -15 23 -34
138 -23 138 3 0 13 -7 21 -16z m-478 -44 c20 -56 96 -331 105 -379 13 -63 33
-91 69 -91 32 0 43 -11 34 -34 -8 -22 -47 -30 -73 -17 -28 15 -42 46 -91 192
-74 221 -106 341 -95 359 13 21 39 5 51 -30z m980 -1 c12 -21 -17 -26 -119
-22 -113 5 -131 8 -122 23 9 14 232 13 241 -1z m200 -109 c19 -63 34 -127 34
-142 0 -48 -26 -31 -45 30 -10 31 -24 75 -31 97 -7 22 -16 62 -19 88 -6 43 -4
48 11 45 13 -2 26 -33 50 -118z m191 108 c10 -13 46 -127 58 -184 11 -56 26
-61 185 -68 80 -4 208 -11 285 -16 77 -6 257 -17 400 -25 143 -8 274 -18 291
-21 28 -5 47 -19 130 -96 29 -27 35 -28 185 -38 85 -5 215 -12 289 -15 74 -3
143 -8 152 -11 10 -3 20 -17 23 -32 3 -15 10 -45 16 -67 15 -55 16 -87 4 -92
-17 -5 -36 35 -42 89 -9 72 -18 75 -218 83 -378 14 -421 22 -485 90 -41 44
-73 55 -162 55 -46 0 -148 7 -228 15 -80 8 -181 15 -225 15 -44 0 -143 7 -220
15 -77 8 -193 15 -257 15 -114 0 -117 1 -137 26 -12 15 -21 36 -21 47 0 10 -7
42 -16 71 -29 91 -34 112 -34 134 0 24 12 29 27 10z m-107 -40 c21 -78 42
-153 51 -176 13 -34 11 -62 -5 -62 -19 0 -27 14 -37 59 -10 51 -35 161 -44
194 -6 21 -4 27 9 27 10 0 19 -15 26 -42z m258 -10 c25 -57 34 -106 21 -114
-15 -9 -18 -4 -38 67 -16 56 -18 89 -6 89 2 0 13 -19 23 -42z m390 -19 c7 -30
18 -58 23 -63 13 -14 207 -35 324 -36 55 0 154 -7 220 -15 65 -8 137 -15 158
-15 34 0 48 -8 99 -55 32 -30 69 -57 81 -60 12 -2 146 -11 297 -20 l275 -15
35 -38 c19 -21 50 -55 68 -75 l32 -37 108 0 c59 0 114 -5 122 -10 29 -19 -8
-25 -133 -20 l-125 5 -66 65 c-37 36 -74 68 -84 72 -9 3 -84 7 -167 7 -138 1
-292 12 -373 27 -21 4 -55 27 -93 62 l-59 54 -118 9 c-64 4 -209 15 -322 23
-113 9 -226 16 -252 16 -46 0 -48 2 -64 38 -22 53 -31 146 -13 140 7 -2 19
-29 27 -59z m667 0 c99 -6 189 -12 200 -15 11 -2 51 -29 88 -59 l68 -55 83 0
c116 0 349 -20 361 -31 5 -6 5 -13 -2 -20 -8 -8 -75 -7 -249 3 l-237 15 -40
43 c-61 65 -86 72 -303 80 -257 11 -335 24 -318 52 4 6 35 8 88 4 44 -3 162
-10 261 -17z m-1605 -64 c46 -24 70 -66 70 -124 0 -86 -55 -120 -133 -82 -82
40 -101 141 -36 195 35 30 58 32 99 11z m2674 -59 c61 -25 98 -102 76 -156
-28 -68 -104 -80 -165 -26 -37 31 -39 36 -39 91 0 50 3 60 27 81 32 28 54 30
101 10z m-2870 -50 c9 -19 16 -40 16 -48 0 -14 34 -110 52 -146 6 -12 32 -34
57 -49 27 -15 40 -28 32 -31 -7 -2 -16 0 -20 4 -3 5 -17 14 -31 20 -40 18 -90
64 -90 84 0 10 -7 34 -15 53 -8 20 -15 47 -15 60 0 14 -7 30 -15 37 -19 16
-20 50 -1 50 7 0 21 -15 30 -34z m-598 -102 c15 -29 21 -32 97 -44 45 -7 113
-16 150 -19 72 -7 97 -23 97 -65 0 -10 6 -42 14 -70 8 -28 22 -80 31 -116 10
-36 23 -85 30 -110 8 -25 21 -74 30 -110 10 -36 24 -85 31 -109 8 -25 14 -55
14 -68 0 -48 37 -56 368 -82 117 -9 159 -22 146 -42 -8 -13 -98 -10 -189 6
-44 8 -107 15 -140 15 -33 0 -96 7 -140 15 -44 8 -95 15 -113 15 -24 0 -34 6
-41 23 -26 69 -56 165 -70 227 -24 98 -85 306 -93 316 -12 16 -118 28 -130 16
-6 -6 0 -40 17 -93 44 -144 52 -172 70 -239 38 -149 55 -201 93 -293 16 -39
70 -77 110 -77 27 0 41 -19 51 -71 24 -120 63 -241 85 -257 6 -5 67 -13 136
-16 192 -11 253 -19 258 -35 4 -12 -10 -13 -84 -8 -49 4 -105 11 -124 17 -19
5 -77 13 -129 19 -105 10 -114 16 -132 86 -6 22 -17 63 -25 91 -8 28 -14 62
-14 75 0 39 -25 66 -70 73 -64 10 -79 32 -125 191 -10 33 -24 74 -32 92 -7 17
-13 39 -13 49 0 10 -6 36 -14 59 -8 22 -22 67 -31 100 -10 33 -21 68 -26 77
-9 17 -26 81 -36 129 -3 16 2 37 12 53 17 25 21 26 96 23 43 -1 83 -7 89 -13
5 -5 16 -41 25 -79 8 -39 24 -101 36 -140 11 -38 24 -86 29 -105 4 -19 13 -48
18 -65 6 -16 20 -62 32 -102 23 -76 40 -99 65 -89 17 6 15 25 -10 101 -19 58
-47 156 -92 325 -8 30 -19 69 -25 85 -5 17 -13 47 -18 68 -11 55 -35 77 -84
78 -23 0 -85 5 -140 12 l-98 12 -19 45 c-19 47 -24 92 -12 104 4 4 11 -5 16
-21 4 -15 15 -42 23 -59z m1374 -75 c41 -5 113 -12 160 -15 107 -6 566 -26
725 -31 133 -5 150 -12 158 -66 7 -51 43 -231 72 -363 8 -40 15 -80 15 -90 0
-11 7 -48 15 -84 33 -150 73 -373 68 -386 -3 -8 -13 -14 -23 -14 -10 0 -41
-16 -69 -35 -28 -20 -51 -31 -51 -25 0 9 16 25 84 82 27 23 28 27 18 58 -7 18
-12 44 -12 57 0 13 -6 45 -14 71 -20 70 -42 168 -76 352 -17 91 -35 188 -40
215 -5 28 -12 74 -16 103 -11 87 -13 88 -214 102 -96 6 -278 15 -405 20 -126
6 -268 14 -315 20 -47 5 -133 10 -191 10 l-106 0 -41 -44 c-64 -69 -75 -98
-63 -157 23 -105 31 -146 37 -198 4 -30 13 -66 20 -80 8 -14 14 -32 14 -40 0
-7 7 -34 14 -60 8 -25 22 -73 31 -106 9 -33 23 -80 31 -105 8 -25 14 -54 14
-65 0 -11 7 -31 16 -43 19 -27 14 -36 -15 -27 -12 3 -22 18 -26 38 -4 18 -13
52 -20 77 -8 25 -21 70 -29 100 -8 30 -20 75 -27 100 -7 25 -16 70 -20 100 -8
63 -23 133 -44 205 -43 151 -44 162 -27 194 10 16 39 55 66 85 l48 56 82 0
c44 -1 115 -5 156 -11z m3155 -44 c16 -13 27 -25 25 -27 -50 -31 -72 -39 -85
-28 -27 22 -12 81 20 80 5 -1 23 -12 40 -25z m-1842 -101 c114 -8 104 3 138
-146 12 -54 27 -102 33 -107 6 -5 60 -11 120 -12 l108 -3 57 62 c31 34 62 62
69 62 24 0 11 -31 -38 -87 -28 -32 -56 -64 -62 -72 -8 -9 -22 -11 -47 -6 -20
3 -80 10 -133 13 -53 4 -102 12 -108 18 -6 6 -13 35 -17 65 -3 30 -10 59 -14
65 -5 6 -12 28 -17 50 -5 24 -14 40 -25 42 -15 3 -16 -4 -11 -56 6 -54 5 -60
-17 -76 -31 -22 -61 -20 -93 5 -31 24 -35 75 -10 114 14 22 14 24 -5 34 -11 6
-41 11 -68 11 -26 0 -55 5 -63 10 -25 17 9 31 60 25 25 -2 89 -7 143 -11z
m-1823 -4 c8 -5 12 -12 9 -15 -8 -8 -39 5 -39 16 0 11 11 11 30 -1z m3762 -5
c39 -10 78 -80 78 -142 0 -52 -45 -163 -66 -163 -6 0 -17 -7 -24 -15 -9 -11
-32 -15 -81 -15 -68 0 -70 1 -112 43 -40 40 -77 118 -77 160 0 33 40 96 75
120 29 20 45 23 107 21 40 -1 85 -5 100 -9z m-3215 -47 c31 -28 73 -69 93 -90
39 -43 34 -42 180 -33 58 4 149 2 204 -4 55 -5 105 -7 112 -3 7 4 43 42 79 85
39 44 74 77 85 77 10 0 28 -12 39 -26 19 -25 21 -40 21 -193 l0 -167 -32 -43
-31 -43 11 -88 c18 -130 16 -165 -10 -194 -29 -32 -266 -176 -290 -176 -60 0
-338 182 -370 242 -13 23 -18 55 -18 106 0 83 -11 111 -65 162 -34 33 -75 107
-75 135 0 8 -16 61 -36 120 -24 73 -33 116 -29 134 17 68 56 68 132 -1z
m-1388 -45 c12 -38 29 -93 37 -123 48 -170 100 -340 137 -450 l32 -94 44 -13
c54 -15 71 -29 71 -57 -1 -19 -3 -19 -24 8 -22 27 -28 28 -70 23 -51 -7 -72 6
-82 51 -3 15 -17 65 -31 112 -14 47 -29 99 -34 115 -4 17 -17 55 -29 85 -25
63 -28 72 -69 230 -34 126 -39 180 -17 180 8 0 22 -28 35 -67z m3566 38 c28
-5 41 -12 43 -25 4 -18 -1 -19 -84 -11 -49 4 -134 10 -189 14 -85 5 -100 9
-103 24 -3 17 6 17 145 11 81 -4 166 -10 188 -13z m2636 -51 c159 -18 347 -85
489 -174 92 -57 247 -174 254 -192 3 -8 -4 -24 -16 -36 -19 -19 -28 -20 -119
-15 -54 3 -122 13 -152 22 l-55 16 24 24 c31 31 30 37 -6 78 -33 38 -103 67
-206 86 -36 7 -189 11 -387 11 -259 0 -327 3 -327 13 0 22 56 74 107 100 76
39 184 67 293 76 8 0 54 -4 101 -9z m-7330 -47 c-26 -31 -108 -150 -179 -258
-20 -32 -71 -142 -88 -191 -8 -25 -21 -91 -27 -147 l-12 -102 -19 28 c-40 59
-48 212 -17 305 36 105 105 212 172 267 34 28 85 69 112 93 28 23 59 42 70 42
16 0 15 -5 -12 -37z m1775 -90 c3 -10 10 -25 15 -33 22 -36 50 -105 47 -119
-2 -11 -16 -17 -45 -19 -52 -4 -73 22 -73 89 0 51 -8 59 -61 59 -36 0 -72 17
-64 31 4 5 44 9 91 9 72 0 85 -3 90 -17z m2824 -3 c6 -11 8 -25 5 -30 -10 -15
-52 -12 -69 6 -21 20 -20 31 2 37 36 10 52 6 62 -13z m135 -3 c21 -16 13 -37
-15 -37 -22 0 -34 15 -26 35 7 19 17 19 41 2z m2713 -174 c-16 -2 -40 -2 -55
0 -16 2 -3 4 27 4 30 0 43 -2 28 -4z m-3436 -34 c37 -5 121 -9 187 -9 119 0
120 0 139 -27 11 -16 22 -50 25 -78 5 -47 11 -76 42 -185 17 -62 12 -70 -50
-70 l-53 0 -106 -114 c-114 -123 -118 -130 -91 -206 8 -23 15 -56 15 -72 0
-46 27 -88 61 -95 16 -3 32 -10 35 -14 8 -13 -69 -11 -165 6 -47 8 -144 21
-216 30 -71 9 -218 27 -325 41 -107 14 -240 29 -294 35 -55 5 -118 14 -140 19
-23 5 -56 10 -75 10 -41 0 -71 24 -71 56 l0 23 25 -24 c18 -19 35 -25 65 -25
23 0 92 -7 153 -15 197 -26 329 -44 447 -59 63 -8 153 -20 200 -27 143 -20
251 -25 261 -13 6 8 0 49 -18 117 l-27 104 123 131 c109 117 127 131 159 134
30 2 38 8 40 25 3 23 -30 175 -50 225 -11 30 -20 32 -143 43 -38 3 -86 10
-105 15 -19 4 -93 11 -165 15 -176 9 -174 11 -150 -121 9 -54 22 -115 27 -134
5 -19 14 -64 19 -100 6 -36 13 -79 16 -95 4 -28 -4 -39 -87 -120 -50 -49 -97
-93 -105 -97 -14 -8 -163 4 -270 21 -138 23 -324 42 -385 40 -38 -1 -90 5
-125 14 -33 10 -94 21 -135 26 l-75 8 65 2 c112 2 360 -18 665 -55 66 -8 147
-17 180 -20 l60 -5 90 84 90 85 -19 103 c-10 57 -22 127 -27 154 -24 143 -32
182 -40 198 -5 10 -7 22 -4 27 6 10 229 3 327 -11z m3193 6 c100 -18 268 -78
359 -129 74 -42 189 -136 212 -174 10 -15 28 -43 41 -63 12 -19 23 -45 23 -57
0 -19 -6 -22 -37 -22 -42 0 -66 12 -171 82 -69 47 -260 148 -279 148 -6 0 -16
6 -22 14 -7 8 -36 18 -66 21 -93 12 -151 -15 -91 -43 28 -13 206 -160 249
-206 109 -117 181 -252 175 -329 -3 -42 -3 -42 -45 -44 -33 -2 -52 4 -95 33
-29 20 -57 41 -63 48 -5 6 -39 36 -74 66 -36 30 -76 65 -89 78 -14 12 -29 22
-35 22 -5 0 -48 24 -96 52 -140 85 -217 118 -421 178 -58 17 -125 37 -150 45
-25 8 -52 15 -61 15 -8 0 -24 6 -35 14 -18 14 -18 15 10 45 29 30 129 84 177
95 14 3 43 18 65 32 54 37 134 73 186 83 71 14 240 12 333 -4z m-3277 -152
c-15 -2 -42 -2 -60 0 -18 2 -6 4 27 4 33 0 48 -2 33 -4z m250 -30 c-21 -2 -55
-2 -75 0 -21 2 -4 4 37 4 41 0 58 -2 38 -4z m-2561 -125 c-2 -13 -4 -5 -4 17
-1 22 1 32 4 23 2 -10 2 -28 0 -40z m276 20 c20 -23 23 -78 5 -96 -21 -21 -58
-13 -89 17 -36 36 -36 54 -4 87 29 29 58 26 88 -8z m4700 -84 c143 -37 366
-160 449 -248 57 -61 103 -141 132 -231 39 -124 60 -285 36 -285 -6 0 -25 24
-44 53 -63 98 -157 207 -180 207 -11 0 -13 -15 -9 -82 3 -46 8 -99 12 -118 8
-38 -3 -76 -33 -108 -10 -12 -15 -26 -11 -31 3 -6 -1 -25 -9 -43 -9 -17 -16
-39 -16 -49 0 -52 -49 -23 -70 42 -8 22 -21 46 -29 52 -24 18 -115 127 -143
172 -14 22 -55 71 -91 110 -74 77 -97 117 -97 167 0 73 -69 117 -182 118 -73
0 -248 27 -261 39 -15 14 46 44 137 68 49 12 99 23 110 23 12 0 28 5 36 10 13
9 13 11 0 20 -24 16 -120 11 -187 -9 -35 -11 -63 -17 -63 -15 0 13 31 62 52
81 29 28 110 64 163 74 56 11 229 1 298 -17z m-4165 -1 c15 -10 39 -32 55 -50
19 -21 43 -35 77 -43 63 -15 64 -30 3 -30 -34 0 -53 6 -70 22 -13 12 -23 25
-23 30 0 14 -53 70 -75 79 -11 4 -14 8 -7 8 7 1 25 -7 40 -16z m-670 -76 c53
-10 113 -17 132 -17 43 0 180 -31 180 -41 0 -18 -25 -19 -112 -5 -51 8 -136
20 -188 27 -52 6 -102 15 -111 20 -22 11 -31 37 -23 63 7 20 7 20 16 -5 8 -23
17 -27 106 -42z m-283 13 c8 -36 -5 -63 -16 -34 -11 27 -11 64 0 64 5 0 12
-13 16 -30z m3282 -15 c70 -80 10 -185 -89 -156 -40 13 -98 71 -98 101 0 33
22 69 49 79 43 17 113 5 138 -24z m-2537 -133 c53 -53 50 -139 -6 -164 -47
-22 -123 36 -138 104 -4 20 1 34 20 57 35 42 84 43 124 3z m2125 -43 c28 -25
42 -30 68 -26 17 2 64 0 102 -4 39 -5 117 -14 175 -20 58 -5 141 -16 184 -22
l79 -12 13 -50 c13 -47 31 -145 54 -291 5 -34 14 -74 20 -88 13 -35 13 -96 0
-96 -5 0 -12 10 -14 23 -2 12 -11 54 -20 93 -9 40 -16 88 -16 107 0 19 -7 48
-15 63 -8 16 -15 40 -15 54 0 39 -36 144 -51 151 -8 4 -69 15 -136 24 -96 13
-126 14 -145 5 -12 -7 -68 -56 -123 -110 l-100 -97 -72 10 c-40 5 -73 14 -73
18 0 5 33 9 73 9 l72 0 79 80 c49 49 76 84 70 89 -5 5 -44 12 -86 16 l-77 7
-17 -35 c-36 -75 -129 -74 -183 2 -29 40 -26 67 8 102 42 41 97 41 146 -2z
m-1575 -84 c0 -25 35 -96 52 -107 7 -4 42 -8 78 -8 36 0 96 -7 135 -15 38 -8
86 -15 105 -15 19 0 85 -6 145 -15 99 -13 168 -21 470 -55 50 -6 128 -15 175
-20 47 -6 107 -15 133 -20 26 -6 61 -10 77 -10 16 0 32 -5 36 -11 9 -16 -17
-29 -43 -22 -35 8 -71 -5 -78 -28 -10 -32 -66 -23 -83 14 -16 32 -47 47 -100
47 -20 0 -79 7 -132 14 -108 17 -251 35 -360 46 -41 4 -104 12 -140 18 -36 7
-105 17 -155 23 -277 34 -315 43 -315 77 0 9 -7 35 -16 59 -17 44 -12 92 6 63
6 -8 10 -24 10 -35z m-840 -47 c22 -24 26 -68 8 -86 -21 -21 -65 -14 -87 14
-23 30 -26 46 -11 75 15 26 64 25 90 -3z m-297 -23 c9 -4 17 -14 17 -22 0 -11
-5 -13 -17 -8 -10 4 -61 12 -113 17 -135 14 -142 32 -10 25 58 -3 113 -8 123
-12z m-543 -46 c140 -45 144 -48 148 -93 6 -69 12 -69 -238 34 -93 38 -99 44
-75 70 25 27 54 25 165 -11z m1340 -58 c63 -5 142 -15 175 -20 33 -6 116 -17
185 -26 69 -9 170 -22 225 -30 55 -8 127 -17 160 -20 33 -3 85 -10 115 -15
101 -18 254 -39 332 -46 43 -3 85 -13 95 -20 16 -12 6 -13 -72 -8 -49 3 -139
12 -200 19 -60 8 -166 21 -235 30 -167 20 -340 43 -420 56 -36 5 -101 14 -145
20 -44 5 -100 13 -125 19 -25 5 -76 14 -115 19 -123 17 -198 31 -204 37 -6 6
10 5 229 -15z m-1425 -59 c142 -53 238 -98 261 -123 16 -17 16 -21 3 -35 -14
-13 -23 -12 -85 7 -103 32 -284 128 -284 150 0 25 39 25 105 1z m5541 -130
c23 -45 44 -99 47 -119 3 -21 12 -74 21 -118 27 -136 18 -303 -14 -255 -5 8
-10 25 -10 37 0 32 -65 209 -127 348 -29 66 -53 129 -53 141 0 19 19 34 60 47
27 9 34 1 76 -81z m-2162 62 c3 -9 6 -29 6 -44 0 -16 5 -41 12 -55 9 -20 9
-28 0 -37 -21 -21 -39 12 -47 85 -5 55 -4 67 8 67 8 0 18 -7 21 -16z m97 -50
c3 -21 10 -52 14 -67 7 -25 5 -28 -11 -25 -21 4 -32 35 -33 96 -1 56 21 52 30
-4z m409 18 c0 -13 -12 -22 -22 -16 -10 6 -1 24 13 24 5 0 9 -4 9 -8z m-3845
-77 c202 -51 263 -86 231 -131 -12 -16 -16 -17 -37 -3 -13 9 -51 24 -84 34
-33 10 -77 27 -98 37 -21 11 -67 28 -102 39 -66 20 -100 43 -89 61 3 5 16 7
28 3 11 -4 80 -22 151 -40z m713 23 c17 -17 15 -28 -7 -28 -22 0 -35 15 -26
30 8 13 18 13 33 -2z m356 -39 c94 -26 161 -174 95 -209 -40 -22 -167 58 -203
127 -21 43 -20 59 6 77 26 19 49 20 102 5z m2806 -59 c0 -5 -7 -10 -15 -10 -8
0 -15 5 -15 10 0 6 7 10 15 10 8 0 15 -4 15 -10z m-3073 -44 c-103 -94 -143
-126 -160 -126 -17 0 -17 2 -2 23 20 29 176 146 195 147 8 0 -6 -20 -33 -44z
m-939 5 c20 -10 75 -29 117 -41 58 -17 206 -70 236 -85 32 -17 37 -32 14 -41
-19 -8 -146 36 -246 86 -45 22 -88 40 -95 40 -8 0 -17 7 -20 15 -4 8 -12 15
-20 15 -8 0 -14 5 -14 10 0 12 5 13 28 1z m-641 -23 c5 -7 25 -49 43 -93 40
-95 78 -158 154 -252 47 -58 126 -124 171 -142 6 -2 18 -10 27 -19 23 -19 56
-8 38 13 -38 46 51 -9 157 -97 80 -66 151 -106 205 -114 50 -8 56 -20 19 -39
-75 -38 -241 -4 -386 79 -68 40 -248 208 -321 301 -43 55 -89 147 -113 229
-30 99 -27 177 6 134z m2550 1 c15 -6 66 -15 113 -19 47 -5 114 -13 150 -18
88 -14 276 -38 440 -58 74 -9 194 -25 265 -35 72 -11 180 -26 240 -34 209 -28
303 -43 314 -49 6 -4 11 -14 11 -23 0 -12 -6 -14 -27 -8 -16 3 -62 10 -104 15
-41 5 -95 14 -120 19 -24 6 -62 11 -83 11 -22 0 -78 7 -125 15 -81 14 -414 62
-491 71 -19 3 -75 11 -125 19 -147 23 -245 36 -340 46 -49 5 -94 14 -99 19 -6
6 -27 10 -47 10 -37 0 -55 10 -42 24 10 9 38 7 70 -5z m-229 -84 c34 -52 49
-92 39 -102 -13 -12 -68 21 -97 57 -28 36 -39 78 -23 94 17 17 50 -3 81 -49z
m3707 10 c0 -13 -12 -25 -35 -36 -45 -21 -217 -79 -350 -119 -142 -42 -172
-56 -168 -78 3 -12 12 -16 33 -15 28 2 186 48 268 79 20 8 54 20 75 28 117 44
213 59 228 35 13 -22 -44 -64 -113 -82 -37 -10 -97 -28 -133 -39 -36 -11 -78
-24 -95 -28 -63 -17 -211 -61 -237 -71 -27 -11 -37 -32 -20 -43 10 -6 148 18
222 39 204 56 336 86 358 80 l25 -6 -24 -24 c-26 -25 -211 -82 -309 -95 -63
-8 -147 -28 -172 -41 -10 -5 -26 -9 -37 -9 -33 0 -51 -11 -67 -41 -16 -31 -8
-62 19 -72 13 -5 103 14 167 35 19 6 51 15 70 19 19 4 60 15 90 24 94 28 202
55 219 55 26 -1 -36 -50 -63 -50 -12 0 -63 -13 -112 -30 -49 -16 -154 -45
-234 -64 -163 -40 -174 -47 -167 -114 4 -36 0 -48 -19 -69 -14 -15 -27 -38
-30 -52 -7 -39 -65 -151 -97 -189 -29 -35 -28 -52 2 -52 37 0 30 -14 -16 -32
-117 -46 -165 -59 -200 -56 l-38 3 72 48 c102 68 170 146 226 259 26 53 47
102 47 109 0 8 8 28 17 44 15 25 18 63 20 244 2 188 4 216 20 233 48 53 430
198 513 195 38 -2 45 -5 45 -22z m-4007 -75 c5 -32 -62 -190 -81 -190 -4 0
-12 -10 -17 -22 -6 -17 -9 -18 -9 -6 -1 9 3 19 8 22 5 3 11 20 14 38 5 37 23
90 43 130 8 14 14 34 14 43 0 25 24 12 28 -15z m392 -118 c0 -15 -6 -39 -14
-53 -7 -14 -16 -37 -19 -51 -4 -14 -31 -52 -62 -84 -30 -33 -55 -62 -55 -66 0
-5 -4 -8 -9 -8 -6 0 -22 -11 -37 -25 -15 -14 -33 -25 -41 -25 -7 0 22 36 65
80 80 82 142 183 142 233 0 13 3 27 6 30 12 12 24 -4 24 -31z m2028 -32 c17
-11 32 -24 32 -29 0 -5 2 -16 6 -24 8 -22 -44 -77 -94 -98 -45 -20 -146 -26
-170 -10 -30 19 46 155 98 174 34 12 96 6 128 -13z m-509 -76 c12 -15 21 -37
21 -50 0 -31 -43 -70 -96 -84 -45 -13 -64 -8 -64 15 0 22 49 128 63 137 24 15
56 8 76 -18z m-2751 -79 c89 -116 200 -212 271 -236 21 -7 17 -8 -17 -5 -79 8
-173 65 -235 144 -56 72 -107 154 -107 172 0 12 4 20 9 18 5 -1 40 -44 79 -93z
m3619 -82 c18 -20 33 -41 33 -47 0 -6 -7 -3 -14 7 -7 9 -16 17 -20 17 -10 0
-46 39 -46 50 0 18 14 10 47 -27z m-574 -2 c9 -16 17 -38 17 -49 0 -26 26
-112 56 -185 29 -71 30 -75 3 -51 -22 19 -89 154 -89 178 0 7 -7 33 -15 56
-14 41 -13 80 4 80 3 0 14 -13 24 -29z m2683 -31 c-22 -141 -173 -343 -331
-444 -141 -91 -188 -109 -290 -114 -69 -3 -95 0 -110 11 -28 21 -9 39 90 87
46 21 99 53 118 69 39 35 49 37 67 16 16 -20 40 -12 110 34 111 73 252 227
310 339 28 54 45 55 36 2z m-3118 -57 c58 -213 153 -338 340 -450 45 -27 138
-31 202 -8 50 18 123 20 118 4 -14 -42 -264 -67 -331 -33 -68 35 -237 185
-237 211 0 7 -3 13 -7 13 -13 0 -62 88 -90 160 -18 48 -28 140 -16 140 6 0 15
-17 21 -37z"/>
<path d="M5394 13416 c-3 -9 -12 -16 -19 -16 -16 0 -30 -18 -21 -27 3 -3 19 6
36 20 17 14 26 29 20 32 -6 3 -13 -1 -16 -9z"/>
<path d="M5495 13350 c-3 -5 3 -10 14 -10 12 0 21 5 21 10 0 6 -6 10 -14 10
-8 0 -18 -4 -21 -10z"/>
<path d="M7854 13051 c-2 -2 -4 -12 -4 -22 0 -14 11 -18 68 -21 67 -3 84 4 79
32 -2 12 -18 15 -70 15 -38 0 -71 -2 -73 -4z"/>
<path d="M7810 12900 c-13 -8 -12 -13 8 -32 l23 -23 20 24 c10 13 19 27 19 32
0 12 -51 11 -70 -1z"/>
<path d="M7658 12160 l-23 -20 23 -20 c28 -23 62 -12 62 20 0 32 -34 43 -62
20z"/>
<path d="M7674 12015 c-7 -18 2 -45 15 -45 5 0 17 8 26 17 16 16 16 17 -1 30
-23 17 -33 16 -40 -2z"/>
<path d="M5177 11360 c-21 -6 -63 -22 -93 -36 -101 -47 -172 -173 -181 -319
-8 -117 8 -187 58 -254 52 -71 80 -95 154 -133 51 -27 71 -32 135 -32 101 -1
186 38 274 126 92 93 109 134 104 261 -3 92 -6 109 -36 167 -48 96 -123 172
-196 199 -69 26 -164 34 -219 21z m220 -110 c129 -44 193 -141 193 -290 0 -73
-4 -81 -87 -177 -76 -87 -123 -108 -241 -107 -70 1 -96 5 -110 18 -10 9 -23
16 -28 16 -16 0 -75 74 -104 134 -26 52 -30 70 -30 144 0 65 5 96 20 126 23
47 72 104 114 130 58 37 175 39 273 6z"/>
<path d="M7651 11339 c-79 -26 -145 -88 -193 -186 -30 -62 -33 -75 -33 -163 1
-105 21 -184 56 -216 12 -11 30 -36 40 -56 21 -41 86 -91 151 -114 27 -10 81
-17 143 -18 91 -1 105 2 157 27 68 33 136 97 162 151 16 33 18 59 14 195 -3
155 -4 156 -37 219 -19 35 -54 80 -77 101 -87 76 -250 102 -383 60z m253 -90
c98 -38 180 -127 190 -206 17 -131 17 -133 -4 -133 -20 0 -24 -9 -20 -43 3
-31 -49 -94 -109 -134 -56 -37 -56 -37 -161 -37 -97 0 -109 2 -158 29 -85 46
-142 147 -142 253 0 118 65 233 155 273 58 27 176 25 249 -2z"/>
<path d="M7246 9719 c-50 -12 -108 -32 -167 -57 -35 -15 -56 -34 -85 -77 -58
-84 -71 -114 -79 -178 -15 -134 52 -184 189 -143 82 25 141 72 220 176 56 73
66 100 66 170 0 48 -4 64 -26 89 -28 33 -47 36 -118 20z"/>
<path d="M5499 9678 c-41 -65 -7 -158 104 -291 91 -107 215 -165 268 -124 20
15 49 81 49 110 0 23 -14 71 -38 130 -39 95 -214 207 -324 207 -32 0 -41 -5
-59 -32z"/>
<path d="M3920 7956 c0 -8 4 -18 10 -21 5 -3 14 -24 20 -45 13 -47 35 -55 25
-10 -14 62 -55 119 -55 76z"/>
<path d="M3515 7378 c-41 -48 -125 -186 -125 -205 0 -15 17 -18 22 -4 2 5 23
25 47 46 32 26 51 35 67 31 16 -4 23 -1 27 14 3 11 19 28 36 37 35 20 38 38
14 88 -22 46 -43 44 -88 -7z"/>
<path d="M3159 7112 c-162 -174 -254 -307 -294 -421 -18 -52 -19 -61 -3 -61
11 0 158 66 203 92 26 14 163 58 183 58 30 0 -4 21 -49 31 -24 6 -52 17 -61
26 -26 23 -24 98 5 150 93 173 98 183 79 183 -5 0 -33 -26 -63 -58z"/>
<path d="M8710 4915 c0 -19 30 -19 56 0 18 13 17 14 -18 15 -27 0 -38 -4 -38
-15z"/>
<path d="M8576 4804 c-24 -23 -19 -26 14 -9 17 9 30 18 30 20 0 11 -30 4 -44
-11z"/>
</g>
</svg>
